<?xml version="1.0" encoding="UTF-8"?>
<svg version="1.1" xmlns="http://www.w3.org/2000/svg" width="250" height="250">
<path d="M0 0 C-0.55728913 3.34373475 -1.35173889 6.03312999 -3 9 C0.465 8.505 0.465 8.505 4 8 C4.226875 7.236875 4.45375 6.47375 4.6875 5.6875 C6.32149334 2.34170411 7.6037323 1.46657014 11 0 C16.18644068 -0.40677966 16.18644068 -0.40677966 19 1 C17.125 4.875 17.125 4.875 16 6 C17.98 6 19.96 6 22 6 C22.495 6.99 22.495 6.99 23 8 C16.73 8.99 10.46 9.98 4 11 C4.99 12.98 4.99 12.98 6 15 C3.2201184 16.3899408 1.0813674 16.18488204 -2 16 C-4.375 15 -4.375 15 -6 14 C-5.01 15.65 -4.02 17.3 -3 19 C-3.86625 19.4125 -4.7325 19.825 -5.625 20.25 C-9.03737731 21.91153517 -9.03737731 21.91153517 -12 24.1875 C-15.43075898 26.26025022 -17.0664869 26.41845884 -21 26 C-21.78632812 25.74734375 -22.57265625 25.4946875 -23.3828125 25.234375 C-26.12811486 24.71159083 -26.12811486 24.71159083 -28.45703125 26.65234375 C-29.23433594 27.40644531 -30.01164062 28.16054688 -30.8125 28.9375 C-31.60269531 29.68902344 -32.39289063 30.44054687 -33.20703125 31.21484375 C-33.79871094 31.80394531 -34.39039063 32.39304688 -35 33 C-34.01 33 -33.02 33 -32 33 C-31.82057837 36.94727588 -31.90649311 39.5980513 -34 43 C-32.02 43 -30.04 43 -28 43 C-27.773125 42.236875 -27.54625 41.47375 -27.3125 40.6875 C-25.6752225 37.33497941 -24.47051609 36.34088122 -21 35 C-17.61658631 35.60901446 -15.65247292 36.43171713 -13.0625 38.6875 C-11.47447255 42.14379504 -12.03008196 44.37897265 -13 48 C-15.10735468 51.04395676 -16.2377836 51.8508707 -19.875 52.5625 C-24.16025002 51.791155 -25.87170676 49.97932689 -29 47 C-29.99 47.495 -29.99 47.495 -31 48 C-30.505 48.515625 -30.01 49.03125 -29.5 49.5625 C-27.45355731 52.88796936 -27.58142518 55.16306413 -28 59 C-29.5234375 60.71484375 -29.5234375 60.71484375 -31 62 C-36.74031891 53.92255125 -36.74031891 53.92255125 -36 48 C-36.97608217 50.92824652 -37.08226668 52.95613276 -37 56 C-38.65 55.67 -40.3 55.34 -42 55 C-42 56.32 -42 57.64 -42 59 C-44.91517292 57.92598892 -46.77810176 57.22189824 -49 55 C-49.66 56.32 -50.32 57.64 -51 59 C-50.29875 59.226875 -49.5975 59.45375 -48.875 59.6875 C-44.07275616 61.87982871 -39.63376342 65.3521822 -37 70 C-37.495 71.485 -37.495 71.485 -38 73 C-43.65513448 73.55172044 -46.42294507 72.08071005 -51 69 C-51.66 68.01 -52.32 67.02 -53 66 C-52.5717674 68.89057007 -51.89437691 70.12872814 -50 72.4375 C-47.92497416 75.09612686 -47.37712616 76.70014614 -47 80 C-52.75 79.25 -52.75 79.25 -55 77 C-55.33 78.98 -55.66 80.96 -56 83 C-56.66 83 -57.32 83 -58 83 C-58.33 81.68 -58.66 80.36 -59 79 C-60.11375 79.495 -61.2275 79.99 -62.375 80.5 C-66 82 -66 82 -68 82 C-67.56534864 77.07395127 -65.40373025 74.48108776 -62 71 C-59.1875 69.625 -59.1875 69.625 -57 69 C-57 67.02 -57 65.04 -57 63 C-57.68707031 63.433125 -58.37414062 63.86625 -59.08203125 64.3125 C-59.98308594 64.869375 -60.88414063 65.42625 -61.8125 66 C-62.70582031 66.556875 -63.59914063 67.11375 -64.51953125 67.6875 C-67 69 -67 69 -70 69 C-69.5317879 64.22423661 -68.75668002 60.95523655 -66 57 C-67.11375 57.04125 -68.2275 57.0825 -69.375 57.125 C-73 57 -73 57 -75 55 C-77.12377728 48.69630438 -76.77791529 40.99444879 -74 35 C-72.375 33.125 -72.375 33.125 -71 32 C-66.58110387 33.35021826 -64.65654657 35.26115668 -62 39 C-61.72027344 38.46890625 -61.44054688 37.9378125 -61.15234375 37.390625 C-58.30578226 32.37481889 -55.66073494 28.75987205 -50 27 C-46.18441944 26.56769284 -42.48984793 26.25507604 -39 28 C-38.67 26.68 -38.34 25.36 -38 24 C-38.99 24.495 -38.99 24.495 -40 25 C-44.161871 25.56752786 -45.66873469 25.22733893 -49.1875 22.8125 C-51.77689215 20.22310785 -53.60294365 18.3693712 -55 15 C-55 10.63990507 -53.67224894 7.52870218 -50.72265625 4.26953125 C-47.24787307 1.70875 -43.24528139 1.09077082 -39 1 C-35.87090181 2.17341182 -34.62285614 3.0968586 -32.75 5.8125 C-31.82409655 8.51305173 -31.38513925 11.17564549 -31 14 C-30.67 13.34 -30.34 12.68 -30 12 C-29.34 12 -28.68 12 -28 12 C-27.34 14.64 -26.68 17.28 -26 20 C-22.86615486 18.49540371 -22.86615486 18.49540371 -20 16 C-19.95758277 13.66705225 -19.95907063 11.33297433 -20 9 C-17.625 6.0625 -17.625 6.0625 -15 4 C-14.34 4 -13.68 4 -13 4 C-13.33 6.97 -13.66 9.94 -14 13 C-12.35 12.67 -10.7 12.34 -9 12 C-9.226875 11.46375 -9.45375 10.9275 -9.6875 10.375 C-10.1528547 6.83830431 -8.86734965 4.96200289 -7 2 C-4.36821203 0.19064577 -3.2388234 0 0 0 Z M-40 4 C-40.66 5.98 -41.32 7.96 -42 10 C-40.68 10.33 -39.36 10.66 -38 11 C-37.34 9.02 -36.68 7.04 -36 5 C-37.32 4.67 -38.64 4.34 -40 4 Z M-49 8 C-48.67 8.66 -48.34 9.32 -48 10 C-46.01508358 9.73323796 -46.01508358 9.73323796 -44 9 C-43.67 8.01 -43.34 7.02 -43 6 C-45.46278801 6 -46.85224119 6.85452863 -49 8 Z M-16 7 C-16.33 7.66 -16.66 8.32 -17 9 C-16.34 9 -15.68 9 -15 9 C-15.33 8.34 -15.66 7.68 -16 7 Z M-50 13 C-49.01 13 -48.02 13 -47 13 C-46.67 13.99 -46.34 14.98 -46 16 C-45.67 14.35 -45.34 12.7 -45 11 C-47.32357511 10.81509993 -47.32357511 10.81509993 -50 13 Z M-43 12 C-41.68 12.99 -40.36 13.98 -39 15 C-39 14.01 -39 13.02 -39 12 C-40.32 12 -41.64 12 -43 12 Z M-51 13 C-51 14.65 -51 16.3 -51 18 C-49.02 18.99 -49.02 18.99 -47 20 C-47.99 17.69 -48.98 15.38 -50 13 C-50.33 13 -50.66 13 -51 13 Z M-44 13 C-44 14.65 -44 16.3 -44 18 C-43.34 17.67 -42.68 17.34 -42 17 C-42.33 15.68 -42.66 14.36 -43 13 C-43.33 13 -43.66 13 -44 13 Z M-49 14 C-48 16 -48 16 -48 16 Z M-30 15 C-29 17 -29 17 -29 17 Z M-13 16 C-13.99 16.495 -13.99 16.495 -15 17 C-15 17.66 -15 18.32 -15 19 C-13.35 19 -11.7 19 -10 19 C-10.66 18.67 -11.32 18.34 -12 18 C-12.33 17.34 -12.66 16.68 -13 16 Z M-30 18 C-29 21 -29 21 -29 21 Z M-14 21 C-14.33 21.66 -14.66 22.32 -15 23 C-13.68 22.34 -12.36 21.68 -11 21 C-11.99 21 -12.98 21 -14 21 Z M-54 31 C-54.99 32.485 -54.99 32.485 -56 34 C-54.68 33.34 -53.36 32.68 -52 32 C-52.66 31.67 -53.32 31.34 -54 31 Z M-57 34 C-57.33 34.99 -57.66 35.98 -58 37 C-57.01 36.67 -56.02 36.34 -55 36 C-55.66 35.34 -56.32 34.68 -57 34 Z M-72 35 C-72 36.65 -72 38.3 -72 40 C-71.87625 39.360625 -71.7525 38.72125 -71.625 38.0625 C-71.41875 37.381875 -71.2125 36.70125 -71 36 C-70.34 35.67 -69.68 35.34 -69 35 C-69.99 35 -70.98 35 -72 35 Z M-54 35 C-54 35.33 -54 35.66 -54 36 C-52.02 36 -50.04 36 -48 36 C-48 35.67 -48 35.34 -48 35 C-49.98 35 -51.96 35 -54 35 Z M-48.1328125 36.875 C-48.93847656 37.05546875 -49.74414062 37.2359375 -50.57421875 37.421875 C-51.41597656 37.61265625 -52.25773437 37.8034375 -53.125 38 C-53.97449219 38.19078125 -54.82398438 38.3815625 -55.69921875 38.578125 C-57.79990565 39.05018947 -59.90000875 39.52485047 -62 40 C-62 41.32 -62 42.64 -62 44 C-55.07 44.495 -55.07 44.495 -48 45 C-45.03 40.545 -45.03 40.545 -42 36 C-44.18406483 36 -46.00161526 36.3947302 -48.1328125 36.875 Z M-40 37 C-39 39 -39 39 -39 39 Z M-41 39 C-43.37015245 41.65484449 -43.37015245 41.65484449 -44 45 C-43.01 45 -42.02 45 -41 45 C-40.67 43.02 -40.34 41.04 -40 39 C-40.33 39 -40.66 39 -41 39 Z M-19 39 C-19.33 39.66 -19.66 40.32 -20 41 C-19.01 41.33 -18.02 41.66 -17 42 C-17 41.01 -17 40.02 -17 39 C-17.66 39 -18.32 39 -19 39 Z M-71 40 C-70 42 -70 42 -70 42 Z M-16 41 C-16 42.65 -16 44.3 -16 46 C-15.67 46 -15.34 46 -15 46 C-15 44.35 -15 42.7 -15 41 C-15.33 41 -15.66 41 -16 41 Z M-69 42 C-68 44 -68 44 -68 44 Z M-73 43 C-72 46 -72 46 -72 46 Z M-69 45 C-68 47 -68 47 -68 47 Z M-20 46 C-19.34 46.66 -18.68 47.32 -18 48 C-18 47.34 -18 46.68 -18 46 C-18.66 46 -19.32 46 -20 46 Z M-17 46 C-16 48 -16 48 -16 48 Z M-71 47 C-71 49.31 -71 51.62 -71 54 C-70.34 52.68 -69.68 51.36 -69 50 C-69.66 49.01 -70.32 48.02 -71 47 Z M-62 47 C-62.66 49.64 -63.32 52.28 -64 55 C-62.7315625 54.2575 -62.7315625 54.2575 -61.4375 53.5 C-57.66203168 51.85252292 -55.07182452 51.75569053 -51 52 C-50.67 51.01 -50.34 50.02 -50 49 C-52.28705831 47.85647084 -53.59264762 47.89665561 -56.125 47.9375 C-57.40375 47.958125 -58.6825 47.97875 -60 48 C-60.33 48.99 -60.66 49.98 -61 51 C-61.33 49.68 -61.66 48.36 -62 47 Z M-47 48 C-47.33 48.99 -47.66 49.98 -48 51 C-46.68 51.33 -45.36 51.66 -44 52 C-44.66 50.68 -45.32 49.36 -46 48 C-46.33 48 -46.66 48 -47 48 Z M-69 53 C-69.33 53.66 -69.66 54.32 -70 55 C-69.01 54.67 -68.02 54.34 -67 54 C-67.66 53.67 -68.32 53.34 -69 53 Z M-64 57 C-63 59 -63 59 -63 59 Z M-31 57 C-30 59 -30 59 -30 59 Z M-66 60 C-66.33 61.98 -66.66 63.96 -67 66 C-66.34 65.01 -65.68 64.02 -65 63 C-65.33 62.01 -65.66 61.02 -66 60 Z M-56 60 C-55 62 -55 62 -55 62 Z M-44 66 C-44 66.66 -44 67.32 -44 68 C-44.66 68.66 -45.32 69.32 -46 70 C-43.03 70.495 -43.03 70.495 -40 71 C-40.96885372 69.31503702 -41.96986723 67.64821244 -43 66 C-43.33 66 -43.66 66 -44 66 Z " fill="#04AB93" transform="translate(108,35)"/>
<path d="M0 0 C2.64 0.33 5.28 0.66 8 1 C6.7580393 4.43927579 5.44259716 7.25207819 3 10 C2.34 10 1.68 10 1 10 C1.495 11.485 1.495 11.485 2 13 C2.78375 12.505 3.5675 12.01 4.375 11.5 C7 10 7 10 9 10 C9.125 15.75 9.125 15.75 8 18 C8.804375 18.268125 9.60875 18.53625 10.4375 18.8125 C11.283125 19.204375 12.12875 19.59625 13 20 C14.91358736 25.74076208 14.5387359 31.52167516 12 37 C11.01 37.33 10.02 37.66 9 38 C6.33264727 35.51047079 4.44253657 33.36591866 3 30 C0.69 30 -1.62 30 -4 30 C-4.33 31.32 -4.66 32.64 -5 34 C-2.03 33.34 0.94 32.68 4 32 C3.69168574 35.39145689 3.33999434 37.53408183 1.3125 40.3125 C-1.5010624 42.36564013 -3.54828615 42.77488823 -7 43 C-7.99 42.505 -7.99 42.505 -9 42 C-9 42.66 -9 43.32 -9 44 C-8.278125 43.87625 -7.55625 43.7525 -6.8125 43.625 C-4 44 -4 44 -1.25 46.75 C2.07641196 51.55481728 2.07641196 51.55481728 2 54 C0.34574443 57.06343625 -1.12609817 59.35162122 -3.9375 61.4375 C-6.78527461 62.2141658 -8.25466074 62.12629303 -11 61 C-12.625 58.125 -12.625 58.125 -14 55 C-14.98095748 53.98131338 -15.97702078 52.97648017 -17 52 C-17.33 51.01 -17.66 50.02 -18 49 C-20.26826516 51.89913593 -20.26826516 51.89913593 -20.375 55.5625 C-21 59 -21 59 -23.0625 60.4375 C-24.0215625 60.7159375 -24.0215625 60.7159375 -25 61 C-25.33 59.02 -25.66 57.04 -26 55 C-26.226875 56.11375 -26.45375 57.2275 -26.6875 58.375 C-28 62 -28 62 -30.625 63.4375 C-31.40875 63.623125 -32.1925 63.80875 -33 64 C-32.505 61.03 -32.505 61.03 -32 58 C-32.99 58 -33.98 58 -35 58 C-35.20625 58.78375 -35.4125 59.5675 -35.625 60.375 C-37 63 -37 63 -40.125 64.3125 C-41.07375 64.539375 -42.0225 64.76625 -43 65 C-43.66 64.34 -44.32 63.68 -45 63 C-44.67 62.34 -44.34 61.68 -44 61 C-44.99 60.67 -45.98 60.34 -47 60 C-47 59.34 -47 58.68 -47 58 C-43.7 57.34 -40.4 56.68 -37 56 C-36.67 54.68 -36.34 53.36 -36 52 C-34.35 52 -32.7 52 -31 52 C-31.495 50.515 -31.495 50.515 -32 49 C-30.68 49 -29.36 49 -28 49 C-27.690625 48.360625 -27.38125 47.72125 -27.0625 47.0625 C-26 45 -26 45 -25 44 C-23.00179568 44.0644582 -21.00313413 44.13264472 -19.0078125 44.2578125 C-16.92366541 44.14791325 -16.92366541 44.14791325 -15.25 42.77734375 C-13.64440925 40.4943944 -13.72040768 39.19742766 -13.875 36.4375 C-14.08520179 32.17040359 -14.08520179 32.17040359 -13 30 C-14.32 30.33 -15.64 30.66 -17 31 C-17.33 32.65 -17.66 34.3 -18 36 C-20.25 36.75 -20.25 36.75 -23 37 C-25.375 35.5 -25.375 35.5 -27 33 C-26.78571429 26.78571429 -26.78571429 26.78571429 -24 24 C-20.9375 24.25 -20.9375 24.25 -18 25 C-17.67 25.66 -17.34 26.32 -17 27 C-16.67 26.67 -16.34 26.34 -16 26 C-16.33 25.67 -16.66 25.34 -17 25 C-17.14115161 22.32941149 -17.04247107 19.67567762 -17 17 C-16.01 17 -15.02 17 -14 17 C-12.9739266 18.31337396 -11.97272675 19.64664105 -11 21 C-10.34 21 -9.68 21 -9 21 C-9 20.01 -9 19.02 -9 18 C-6.525 18.99 -6.525 18.99 -4 20 C-3.67 19.34 -3.34 18.68 -3 18 C-3.7425 17.773125 -4.485 17.54625 -5.25 17.3125 C-8.56201872 15.73176379 -9.99479838 14.04493579 -12 11 C-12 10.01 -12 9.02 -12 8 C-5.375 8.75 -5.375 8.75 -2 11 C-2.66 10.071875 -3.32 9.14375 -4 8.1875 C-6 5 -6 5 -6 2 C-3.525 2.495 -3.525 2.495 -1 3 C-0.67 2.01 -0.34 1.02 0 0 Z M6 13 C7 15 7 15 7 15 Z M5 16 C6 18 6 18 6 18 Z M8 21 C8.66 22.32 9.32 23.64 10 25 C10 23.68 10 22.36 10 21 C9.34 21 8.68 21 8 21 Z M4 22 C3.34 22.66 2.68 23.32 2 24 C2.99 24 3.98 24 5 24 C4.67 23.34 4.34 22.68 4 22 Z M-6 24 C-5 26 -5 26 -5 26 Z M-2 24 C-2.33 24.66 -2.66 25.32 -3 26 C-0.69 26 1.62 26 4 26 C3.34 25.34 2.68 24.68 2 24 C0.68 24 -0.64 24 -2 24 Z M-11 25 C-11.33 25.66 -11.66 26.32 -12 27 C-11.01 26.67 -10.02 26.34 -9 26 C-9.66 25.67 -10.32 25.34 -11 25 Z M8 26 C9 28 9 28 9 28 Z M-24 27 C-24 28.98 -24 30.96 -24 33 C-23.67 33 -23.34 33 -23 33 C-22.67 31.02 -22.34 29.04 -22 27 C-22.66 27 -23.32 27 -24 27 Z M-8 29 C-7.67 29.66 -7.34 30.32 -7 31 C-6.67 30.34 -6.34 29.68 -6 29 C-6.66 29 -7.32 29 -8 29 Z M8 29 C9 31 9 31 9 31 Z M10 31 C9.67 31.66 9.34 32.32 9 33 C9.66 33.66 10.32 34.32 11 35 C10.67 33.68 10.34 32.36 10 31 Z M-23 33 C-22.34 33.66 -21.68 34.32 -21 35 C-21 34.34 -21 33.68 -21 33 C-21.66 33 -22.32 33 -23 33 Z M-25 46 C-25.33 46.66 -25.66 47.32 -26 48 C-25.34 48 -24.68 48 -24 48 C-24.33 47.34 -24.66 46.68 -25 46 Z M-15 48 C-14 51 -14 51 -14 51 Z M-4 50 C-3.67 51.32 -3.34 52.64 -3 54 C-2.34 53.67 -1.68 53.34 -1 53 C-1.33 52.01 -1.66 51.02 -2 50 C-2.66 50 -3.32 50 -4 50 Z M-11 56 C-10 58 -10 58 -10 58 Z M-8 56 C-7 58 -7 58 -7 58 Z " fill="#04AB93" transform="translate(205,134)"/>
<path d="M0 0 C1.32 0 2.64 0 4 0 C4.33 2.31 4.66 4.62 5 7 C5.886875 6.154375 6.77375 5.30875 7.6875 4.4375 C10.6058587 1.98248261 10.6058587 1.98248261 13.8125 2.125 C16 3 16 3 17 4 C17.36171816 11.1137905 17.36171816 11.1137905 15.75 15.0625 C14.60513198 18.18779905 14.60513198 18.18779905 16.8125 21.5 C17.1940625 22.08394531 17.575625 22.66789062 17.96875 23.26953125 C19.90791132 26.52350271 20.23883552 29.70346432 19.5625 33.375 C19.2840625 34.179375 19.2840625 34.179375 19 35 C21.97 34.505 21.97 34.505 25 34 C24.67 34.99 24.34 35.98 24 37 C22.02133517 37.69253269 20.04169227 38.38255367 18.0546875 39.05078125 C14.83267696 40.53927661 13.17035059 43.25850452 11 46 C7.76231723 48.09100345 6.04475758 49.09286734 2.1875 48.75 C0 48 0 48 -1 47 C-1.33 47.66 -1.66 48.32 -2 49 C-3.65 48.67 -5.3 48.34 -7 48 C-7.33 46.02 -7.66 44.04 -8 42 C-8.36351563 42.56589844 -8.72703125 43.13179687 -9.1015625 43.71484375 C-13.20699708 49.70456754 -13.20699708 49.70456754 -17.1875 51.1875 C-20 51 -20 51 -21.64672852 49.75268555 C-24.33427846 46.27191321 -23.51766977 42.17110931 -23 38 C-21.77192683 32.81265895 -20.19106827 27.75873014 -18.5625 22.6875 C-17.92756295 20.66724576 -17.29661842 18.64579589 -16.66746521 16.62373352 C-16.09829248 14.80131443 -15.51928332 12.98197592 -14.93969727 11.1628418 C-14.13241696 8.44569022 -13.49675871 5.78793153 -13 3 C-13.78375 3.825 -14.5675 4.65 -15.375 5.5 C-18 8 -18 8 -20 8 C-18.75023244 4.34683329 -18.32901247 3.21934164 -15 1 C-12.4375 0.6875 -12.4375 0.6875 -10 1 C-7.50321005 4.74518493 -7.70842324 6.55251335 -8 11 C-8.81030273 14.4375 -8.81030273 14.4375 -9.93359375 18 C-10.13098648 18.639375 -10.32837921 19.27875 -10.53175354 19.9375 C-11.15776825 21.96135121 -11.79659409 23.98082002 -12.4375 26 C-13.07322331 28.01961242 -13.70593159 30.04003862 -14.33253479 32.0625 C-14.90191259 33.89787651 -15.48082981 35.73028573 -16.06030273 37.5625 C-17.01039116 41.03801183 -17.56724994 44.42632207 -18 48 C-13.52355553 46.12434076 -11.76319644 43.55345484 -9.375 39.421875 C-7.32836838 34.32855313 -6.7824917 29.19693669 -6.11962891 23.77490234 C-5.06929416 15.47927475 -2.77839726 7.86297406 0 0 Z M8.31640625 6.3984375 C-1.46880364 17.4258678 -2.2126467 28.82355347 -2 43 C-1.360625 42.21625 -0.72125 41.4325 -0.0625 40.625 C2.36014257 38.13294074 4.22026003 37.59015138 7.625 37.0625 C11.4781232 36.37384985 11.4781232 36.37384985 14.125 33.3125 C15.13445896 29.49097678 14.84355932 26.83436053 14 23 C10.05317292 21.68439097 7.90653126 22.7925267 4 24 C3.34 24 2.68 24 2 24 C2 23.01 2 22.02 2 21 C2.89138672 20.60361328 2.89138672 20.60361328 3.80078125 20.19921875 C7.81466942 18.01047334 11.27210951 14.42317092 12.60546875 9.984375 C12.93275717 7.87978722 12.93275717 7.87978722 13 5 C10.01984998 4.68052265 10.01984998 4.68052265 8.31640625 6.3984375 Z M3 8 C4 10 4 10 4 10 Z M1 41 C1 41.99 1 42.98 1 44 C4.65316671 42.75023244 5.78065836 42.32901247 8 39 C3.95377498 38.63019987 3.95377498 38.63019987 1 41 Z " fill="#05AA93" transform="translate(121,90)"/>
<path d="M0 0 C0.99 0.495 0.99 0.495 2 1 C2.353499 3.7403726 2.60593757 6.43556439 2.8125 9.1875 C4.04362271 22.15481129 7.7682306 32.70568435 16 43 C16.62519531 43.83402344 17.25039062 44.66804688 17.89453125 45.52734375 C23.86322079 52.53695502 32.56440888 57.50393084 41 61 C42.15435547 61.47953125 42.15435547 61.47953125 43.33203125 61.96875 C58.16702429 67.01498385 75.70480031 65.10005263 89.53930664 58.38305664 C92.38307163 56.96647763 95.19139685 55.48480294 98 54 C99.33116887 53.32902185 100.66339881 52.66009051 102 52 C100.66523392 56.00429825 98.19374545 56.98804783 94.6875 58.9375 C94.06174072 59.29013916 93.43598145 59.64277832 92.79125977 60.00610352 C83.24387351 65.22682137 73.51277121 68.14708473 62.625 68.125 C61.35914063 68.12757813 60.09328125 68.13015625 58.7890625 68.1328125 C55.09035208 68.00316698 51.64562057 67.59347312 48 67 C48.33 67.99 48.66 68.98 49 70 C46.69 69.67 44.38 69.34 42 69 C42 70.65 42 72.3 42 74 C44.83073436 74.50169415 44.83073436 74.50169415 48 74 C50.42422186 71.11490087 50.42422186 71.11490087 52 68 C52.99 68.33 53.98 68.66 55 69 C55.66 72.3 56.32 75.6 57 79 C56.01 79 55.02 79 54 79 C54 78.01 54 77.02 54 76 C52.35 76 50.7 76 49 76 C49 76.66 49 77.32 49 78 C48.34 78 47.68 78 47 78 C47 77.34 47 76.68 47 76 C46.1646875 76.4021875 46.1646875 76.4021875 45.3125 76.8125 C44.549375 76.874375 43.78625 76.93625 43 77 C40.25 74.5625 40.25 74.5625 38 72 C37.67 72.66 37.34 73.32 37 74 C36.34 74 35.68 74 35 74 C35 72.68 35 71.36 35 70 C31.94729537 69.84188612 31.94729537 69.84188612 29 71 C29.165 70.236875 29.33 69.47375 29.5 68.6875 C30.09145396 65.96403764 30.09145396 65.96403764 30 63 C28.68 64.65 27.36 66.3 26 68 C24.515 67.505 24.515 67.505 23 67 C24.32 64.69 25.64 62.38 27 60 C26.34 60 25.68 60 25 60 C24.92007813 59.25105469 24.84015625 58.50210938 24.7578125 57.73046875 C23.8189779 54.34776058 22.613299 53.45208617 19.875 51.3125 C9.84158643 42.78966375 1.68222751 29.2238966 0 16 C-0.06232481 14.65329209 -0.09839511 13.30513585 -0.109375 11.95703125 C-0.11533691 11.22653564 -0.12129883 10.49604004 -0.12744141 9.7434082 C-0.12390546 6.49422799 -0.07096031 3.24840527 0 0 Z M35 62 C34.34 63.32 33.68 64.64 33 66 C34.98 66.99 34.98 66.99 37 68 C37.66 66.35 38.32 64.7 39 63 C37.68 62.67 36.36 62.34 35 62 Z M40 64 C39.67 65.65 39.34 67.3 39 69 C40.98 68.01 42.96 67.02 45 66 C42.32357511 63.81509993 42.32357511 63.81509993 40 64 Z M52 72 C51.67 72.66 51.34 73.32 51 74 C51.66 74 52.32 74 53 74 C52.67 73.34 52.34 72.68 52 72 Z " fill="#04AA93" transform="translate(66,116)"/>
<path d="M0 0 C3.875 2.625 3.875 2.625 5 6 C6.0828125 4.7315625 6.0828125 4.7315625 7.1875 3.4375 C10 1 10 1 12.625 0.8125 C15 2 15 2 16.875 4.4375 C19.45099723 12.59482457 16.67178086 19.62408877 13.44921875 27.23828125 C11.45022731 31.04768003 9.63122456 34.38829079 5.5 35.9375 C2.68730221 36.00781744 1.4276689 35.32184514 -1 34 C-1.25394531 35.04800781 -1.50789062 36.09601563 -1.76953125 37.17578125 C-2.11663775 38.55482599 -2.46432444 39.93372478 -2.8125 41.3125 C-2.97814453 42.00279297 -3.14378906 42.69308594 -3.31445312 43.40429688 C-5.01238745 50.0358517 -5.01238745 50.0358517 -8 52 C-8.99 52 -9.98 52 -11 52 C-10.38616197 47.44103753 -9.62393642 42.96237367 -8.66015625 38.46484375 C-8.2724707 36.63083008 -8.2724707 36.63083008 -7.87695312 34.75976562 C-7.33972728 32.23854024 -6.80070417 29.71769705 -6.25976562 27.19726562 C-4.68224822 19.71677989 -3.42149939 12.32300173 -2.52514648 4.73266602 C-2 2 -2 2 0 0 Z M9.73046875 4.1796875 C3.08870218 11.47722342 0.62785274 19.26828249 0 29 C1.98 29.66 3.96 30.32 6 31 C11.04554941 21.77882349 13.89547961 13.51129604 12 3 C10.83325477 2.88654826 10.83325477 2.88654826 9.73046875 4.1796875 Z M3 8 C4 10 4 10 4 10 Z " fill="#05AA93" transform="translate(154,89)"/>
<path d="M0 0 C0.66 0 1.32 0 2 0 C2.07347656 1.06541016 2.07347656 1.06541016 2.1484375 2.15234375 C2.22320312 3.07144531 2.29796875 3.99054688 2.375 4.9375 C2.44460937 5.85402344 2.51421875 6.77054688 2.5859375 7.71484375 C2.72257812 8.46894531 2.85921875 9.22304687 3 10 C3.66 10.33 4.32 10.66 5 11 C5.3515625 12.72265625 5.3515625 12.72265625 5.625 15.0625 C7.82326097 27.03271792 14.91649442 38.13796007 23 47 C23.5053125 47.59683594 24.010625 48.19367188 24.53125 48.80859375 C39.18409276 64.99400425 60.51225628 71.57156895 81.625 72.625 C84.74958663 72.76284941 87.87438093 72.88807827 91 73 C91 73.66 91 74.32 91 75 C64.62923654 75.74712853 43.89873672 72.99103671 23.875 54.7890625 C10.03902595 41.65215013 2.73378769 24.63946154 0 6 C-0.04523729 4.00051167 -0.06132085 1.99905972 0 0 Z " fill="#05AB93" transform="translate(49,125)"/>
<path d="M0 0 C18.2308072 -0.5638394 34.7253483 8.08934921 48 20 C48.60972656 20.51691406 49.21945313 21.03382812 49.84765625 21.56640625 C63.42697744 33.90843166 71.22755265 53.39066969 72.1796875 71.3984375 C72.18622486 73.9414696 72.14249892 76.4614082 72 79 C71.34 79 70.68 79 70 79 C69.85304688 77.88625 69.70609375 76.7725 69.5546875 75.625 C66.07413452 51.2099445 55.88628728 31.34633102 36 16 C25.11942471 8.5602904 13.00945238 4.00837168 0 2 C0 1.34 0 0.68 0 0 Z " fill="#05AB93" transform="translate(136,42)"/>
<path d="M0 0 C13.51030003 10.95797635 24.52488505 24.20423681 27 42 C27.13277344 42.8146875 27.26554687 43.629375 27.40234375 44.46875 C28.41428693 52.20045071 28.56787612 62.86424777 25 70 C24.34 70 23.68 70 23 70 C23.15855469 69.04351562 23.31710938 68.08703125 23.48046875 67.1015625 C25.25693585 54.53692308 24.9806713 41.77398035 20 30 C19.45666016 28.68322266 19.45666016 28.68322266 18.90234375 27.33984375 C12.48807668 13.27194275 1.51152711 3.3284876 -12.57421875 -2.74609375 C-30.77269731 -9.40711042 -48.46065522 -7.96140765 -66 0 C-65 -3 -65 -3 -62.59375 -4.31640625 C-61.5728125 -4.72761719 -60.551875 -5.13882813 -59.5 -5.5625 C-58.4996875 -5.97628906 -57.499375 -6.39007813 -56.46875 -6.81640625 C-37.65650392 -13.23544968 -16.54229414 -11.47058791 0 0 Z " fill="#04AB93" transform="translate(164,68)"/>
<path d="M0 0 C2.4375 0.75 2.4375 0.75 4.4375 2.75 C4.5625 5.375 4.5625 5.375 4.4375 7.75 C3.7775 7.75 3.1175 7.75 2.4375 7.75 C1.7775 6.1 1.1175 4.45 0.4375 2.75 C-0.8825 2.75 -2.2025 2.75 -3.5625 2.75 C-2.9025 5.06 -2.2425 7.37 -1.5625 9.75 C1.0775 10.08 3.7175 10.41 6.4375 10.75 C6.03946439 13.63575819 5.64740931 14.57189513 3.375 16.5 C2.735625 16.9125 2.09625 17.325 1.4375 17.75 C3.7475 17.75 6.0575 17.75 8.4375 17.75 C8.5625 21.125 8.5625 21.125 8.4375 24.75 C7.7775 25.41 7.1175 26.07 6.4375 26.75 C4.76456064 26.44972883 3.09764616 26.11442233 1.4375 25.75 C0.4475 26.08 -0.5425 26.41 -1.5625 26.75 C-1.2325 25.76 -0.9025 24.77 -0.5625 23.75 C0.0975 23.75 0.7575 23.75 1.4375 23.75 C1.4375 22.76 1.4375 21.77 1.4375 20.75 C0.4475 21.08 -0.5425 21.41 -1.5625 21.75 C-1.8925 19.77 -2.2225 17.79 -2.5625 15.75 C-3.2225 15.75 -3.8825 15.75 -4.5625 15.75 C-5.94278169 5.74295775 -5.94278169 5.74295775 -5.5625 1.75 C-2.5625 -0.25 -2.5625 -0.25 0 0 Z M-1.5625 13.75 C-0.5625 15.75 -0.5625 15.75 -0.5625 15.75 Z M3.4375 20.75 C3.4375 21.74 3.4375 22.73 3.4375 23.75 C4.4275 23.75 5.4175 23.75 6.4375 23.75 C6.4375 22.76 6.4375 21.77 6.4375 20.75 C5.4475 20.75 4.4575 20.75 3.4375 20.75 Z " fill="#05AA93" transform="translate(195.5625,93.25)"/>
<path d="M0 0 C2.4375 0.8125 2.4375 0.8125 5 2 C5.33 2.99 5.66 3.98 6 5 C4.35 4.67 2.7 4.34 1 4 C1.66 5.32 2.32 6.64 3 8 C0.525 7.01 0.525 7.01 -2 6 C-2 6.66 -2 7.32 -2 8 C2.11521298 9.17577514 4.14173423 8.72606626 8 7 C8.99 7 9.98 7 11 7 C10.67 9.64 10.34 12.28 10 15 C10.61875 14.505 11.2375 14.01 11.875 13.5 C14 12 14 12 16 12 C14.79618552 14.49361571 13.54571278 16.68143083 12 19 C12.30840599 21.15274948 12.30840599 21.15274948 13 23 C11 23 11 23 8.4375 20.8125 C5.98865517 17.98690982 5.31237863 16.64441732 5 13 C3.68 13 2.36 13 1 13 C1 12.34 1 11.68 1 11 C-1.475 10.01 -1.475 10.01 -4 9 C-4 4.31908701 -3.00354129 3.37898396 0 0 Z M7 10 C8 12 8 12 8 12 Z " fill="#05AB93" transform="translate(168,58)"/>
<path d="M0 0 C3 3.46153846 3 3.46153846 3 6 C1.68 5.67 0.36 5.34 -1 5 C-0.67 5.99 -0.34 6.98 0 8 C-2.475 7.01 -2.475 7.01 -5 6 C-4.34 7.65 -3.68 9.3 -3 11 C-1.906875 10.505 -0.81375 10.01 0.3125 9.5 C4 8 4 8 7 8 C6.53199289 12.05606165 6.12046792 15.46588679 4 19 C3.34 19 2.68 19 2 19 C1.938125 18.21625 1.87625 17.4325 1.8125 16.625 C1.544375 15.75875 1.27625 14.8925 1 14 C-0.6476038 13.28752268 -2.31763529 12.62599617 -4 12 C-6.375 9.5625 -6.375 9.5625 -8 7 C-6.76759083 3.3027725 -4.20634615 0 0 0 Z M3 11 C4 13 4 13 4 13 Z " fill="#05AB93" transform="translate(77,158)"/>
<path d="M0 0 C2.33944736 0.28730055 4.6739143 0.61936779 7 1 C8.25541557 4.76624671 7.37061958 6.37188934 6 10 C-0.96779403 11.32719886 -7.92988911 11.08825381 -15 11 C-15 10.67 -15 10.34 -15 10 C-10.71 10 -6.42 10 -2 10 C-1.855625 8.535625 -1.71125 7.07125 -1.5625 5.5625 C-1.125 1.125 -1.125 1.125 0 0 Z M2 2 C2 2.66 2 3.32 2 4 C2.99 3.67 3.98 3.34 5 3 C4.01 2.67 3.02 2.34 2 2 Z M1 6 C1 6.66 1 7.32 1 8 C2.32 7.67 3.64 7.34 5 7 C3.68 6.67 2.36 6.34 1 6 Z " fill="#04AB93" transform="translate(136,46)"/>
<path d="M0 0 C0.99 0.33 1.98 0.66 3 1 C5.0329115 0.86980581 5.0329115 0.86980581 7.125 0.5 C9.043125 0.2525 9.043125 0.2525 11 0 C12 1 12 1 12.0625 4.5625 C12.041875 5.696875 12.02125 6.83125 12 8 C7.56923077 10.09230769 7.56923077 10.09230769 4.6875 9.625 C4.130625 9.41875 3.57375 9.2125 3 9 C2.67 7.02 2.34 5.04 2 3 C1.34 3 0.68 3 0 3 C0 2.01 0 1.02 0 0 Z M5 3 C4.67 3.66 4.34 4.32 4 5 C4.99 6.485 4.99 6.485 6 8 C6 6.35 6 4.7 6 3 C5.67 3 5.34 3 5 3 Z M8 3 C8.33 3.99 8.66 4.98 9 6 C9.33 5.01 9.66 4.02 10 3 C9.34 3 8.68 3 8 3 Z " fill="#04AA93" transform="translate(53,131)"/>
<path d="M0 0 C0.33 0.99 0.66 1.98 1 3 C0.01 3.495 0.01 3.495 -1 4 C-0.67 4.99 -0.34 5.98 0 7 C1.32 6.67 2.64 6.34 4 6 C4.33 7.32 4.66 8.64 5 10 C3.6078125 10.185625 3.6078125 10.185625 2.1875 10.375 C-1.13925235 10.81533082 -1.13925235 10.81533082 -4 13 C-4.33 13.99 -4.66 14.98 -5 16 C-5.66 14.02 -6.32 12.04 -7 10 C-5.68 9.34 -4.36 8.68 -3 8 C-3.66 7.34 -4.32 6.68 -5 6 C-5.99 6.33 -6.98 6.66 -8 7 C-8.66 6.34 -9.32 5.68 -10 5 C-6.7 3.35 -3.4 1.7 0 0 Z " fill="#05AA93" transform="translate(193,82)"/>
<path d="M0 0 C1.32 0.66 2.64 1.32 4 2 C3.01 3.485 3.01 3.485 2 5 C2.99 5.33 3.98 5.66 5 6 C5.33 5.34 5.66 4.68 6 4 C6.99 4.33 7.98 4.66 9 5 C7.35 8.3 5.7 11.6 4 15 C3.01 14.34 2.02 13.68 1 13 C1.66 12.01 2.32 11.02 3 10 C2.01 9.67 1.02 9.34 0 9 C-0.33 9.66 -0.66 10.32 -1 11 C-1.66 11 -2.32 11 -3 11 C-2.44894091 7.0507432 -1.61064629 3.65079826 0 0 Z " fill="#04AA93" transform="translate(158,51)"/>
<path d="M0 0 C3.63 0 7.26 0 11 0 C10.67 2.31 10.34 4.62 10 7 C6.66666667 7 3.33333333 7 0 7 C0 4.69 0 2.38 0 0 Z " fill="#04AB93" transform="translate(194,121)"/>
<path d="M0 0 C2.97 0 5.94 0 9 0 C9 0.66 9 1.32 9 2 C7.35 2 5.7 2 4 2 C4 2.66 4 3.32 4 4 C5.32 3.67 6.64 3.34 8 3 C8.33 3.99 8.66 4.98 9 6 C7.35 6 5.7 6 4 6 C4 6.66 4 7.32 4 8 C5.98 7.67 7.96 7.34 10 7 C10 7.99 10 8.98 10 10 C7.36 10 4.72 10 2 10 C1.77213542 7.98177083 1.54427083 5.96354167 1.31640625 3.9453125 C1.08707039 1.92595684 1.08707039 1.92595684 0 0 Z " fill="#05AA93" transform="translate(131,185)"/>
<path d="M0 0 C2.875 -0.125 2.875 -0.125 6 0 C8 2 8 2 8.1953125 4.1640625 C8.17210937 4.97617188 8.14890625 5.78828125 8.125 6.625 C8.10695312 7.44226563 8.08890625 8.25953125 8.0703125 9.1015625 C8.03550781 10.04128906 8.03550781 10.04128906 8 11 C7.01 10.67 6.02 10.34 5 10 C5 9.34 5 8.68 5 8 C4.34 8 3.68 8 3 8 C2.67 8.66 2.34 9.32 2 10 C1.34 10 0.68 10 0 10 C0 6.7 0 3.4 0 0 Z M2 2 C2 2.99 2 3.98 2 5 C3.32 5 4.64 5 6 5 C6 4.34 6 3.68 6 3 C4.68 2.67 3.36 2.34 2 2 Z " fill="#05AB93" transform="translate(124,185)"/>
<path d="M0 0 C-0.33 0.99 -0.66 1.98 -1 3 C-1.66 3 -2.32 3 -3 3 C-2.67 4.32 -2.34 5.64 -2 7 C-0.35 6.34 1.3 5.68 3 5 C3 5.99 3 6.98 3 8 C-3.75 12 -3.75 12 -6 12 C-5.34 10.68 -4.68 9.36 -4 8 C-4.66 7.34 -5.32 6.68 -6 6 C-6.99 6.33 -7.98 6.66 -9 7 C-9 6.01 -9 5.02 -9 4 C-2.25 0 -2.25 0 0 0 Z " fill="#05AA93" transform="translate(72,150)"/>
<path d="M0 0 C0.33 0 0.66 0 1 0 C1.19401633 1.81181405 1.38004375 3.62448532 1.5625 5.4375 C1.66691406 6.44683594 1.77132812 7.45617187 1.87890625 8.49609375 C1.93884766 9.73552734 1.93884766 9.73552734 2 11 C1 12 1 12 -1.5625 12.0625 C-2.366875 12.041875 -3.17125 12.02125 -4 12 C-4.33 10.68 -4.66 9.36 -5 8 C-6.65 8.33 -8.3 8.66 -10 9 C-9.67 8.01 -9.34 7.02 -9 6 C-6.98008215 5.05969341 -4.94483618 4.48345085 -2.8125 3.84375 C-2.214375 3.5653125 -1.61625 3.286875 -1 3 C-0.67 2.01 -0.34 1.02 0 0 Z M-2 6 C-2.33 7.32 -2.66 8.64 -3 10 C-2.01 10 -1.02 10 0 10 C-0.33 8.68 -0.66 7.36 -1 6 C-1.33 6 -1.66 6 -2 6 Z " fill="#05AA93" transform="translate(66,136)"/>
<path d="M0 0 C2.97 0.495 2.97 0.495 6 1 C6.625 3.375 6.625 3.375 7 6 C3.99382731 9.00617269 1.17618402 8.59585316 -3 9 C-2.01 6.03 -1.02 3.06 0 0 Z M2 2 C1.67 2.99 1.34 3.98 1 5 C1.99 5.33 2.98 5.66 4 6 C4 5.01 4 4.02 4 3 C3.34 2.67 2.68 2.34 2 2 Z " fill="#04AB93" transform="translate(146,48)"/>
<path d="M0 0 C0.66 0 1.32 0 2 0 C1.5359375 1.1446875 1.5359375 1.1446875 1.0625 2.3125 C0.32106407 4.18789677 -0.36228217 6.08684652 -1 8 C-0.34 8.33 0.32 8.66 1 9 C1 9.99 1 10.98 1 12 C-1 11 -3 10 -5 9 C-4.42676569 5.13066838 -2.61046448 2.84777943 0 0 Z " fill="#04AB93" transform="translate(87,170)"/>
<path d="M0 0 C2.99324263 1.0975223 3.84610901 1.67682892 5.25 4.625 C5.4975 5.40875 5.745 6.1925 6 7 C5.4225 6.773125 4.845 6.54625 4.25 6.3125 C1.89006205 5.72904407 1.89006205 5.72904407 -0.125 7.4375 C-0.74375 7.953125 -1.3625 8.46875 -2 9 C-2.66 9 -3.32 9 -4 9 C-3 6 -3 6 0 4 C0 2.68 0 1.36 0 0 Z " fill="#05AA92" transform="translate(186,75)"/>
<path d="M0 0 C0 0.99 0 1.98 0 3 C-3.3 3.33 -6.6 3.66 -10 4 C-10 3.01 -10 2.02 -10 1 C-3.375 0 -3.375 0 0 0 Z " fill="#04AA93" transform="translate(64,127)"/>
<path d="M0 0 C0.99 0 1.98 0 3 0 C2.67 3.3 2.34 6.6 2 10 C1.34 10 0.68 10 0 10 C0 6.7 0 3.4 0 0 Z " fill="#04AB93" transform="translate(131,45)"/>
<path d="M0 0 C3.96 0 7.92 0 12 0 C12 0.33 12 0.66 12 1 C8.04 1 4.08 1 0 1 C0 0.67 0 0.34 0 0 Z " fill="#04AA93" transform="translate(114,201)"/>
<path d="M0 0 C1.98 0.99 3.96 1.98 6 3 C5.34 3.66 4.68 4.32 4 5 C2.35 3.68 0.7 2.36 -1 1 C-0.67 0.67 -0.34 0.34 0 0 Z " fill="#05A992" transform="translate(60,92)"/>
<path d="M0 0 C0.66 0 1.32 0 2 0 C2 1.98 2 3.96 2 6 C1.01 6.33 0.02 6.66 -1 7 C-0.67 4.69 -0.34 2.38 0 0 Z " fill="#04A993" transform="translate(96,40)"/>
<path d="M0 0 C2.97 0.495 2.97 0.495 6 1 C5.01 1.33 4.02 1.66 3 2 C2.34 1.67 1.68 1.34 1 1 C1 1.66 1 2.32 1 3 C0.34 2.67 -0.32 2.34 -1 2 C-0.67 1.34 -0.34 0.68 0 0 Z " fill="#04AA93" transform="translate(201,164)"/>
<path d="M0 0 C2.64 0.33 5.28 0.66 8 1 C8 1.33 8 1.66 8 2 C5.36 2 2.72 2 0 2 C0 1.34 0 0.68 0 0 Z " fill="#04AA92" transform="translate(47,76)"/>
<path d="M0 0 C2.625 0.375 2.625 0.375 5 1 C5 1.33 5 1.66 5 2 C2.69 2 0.38 2 -2 2 C-1.34 1.34 -0.68 0.68 0 0 Z " fill="#05AA93" transform="translate(123,195)"/>
<path d="M0 0 C0.33 0 0.66 0 1 0 C1 2.97 1 5.94 1 9 C0.67 9 0.34 9 0 9 C0 6.03 0 3.06 0 0 Z " fill="#04A992" transform="translate(96,129)"/>
<path d="M0 0 C0.33 0 0.66 0 1 0 C1 2.97 1 5.94 1 9 C0.67 9 0.34 9 0 9 C0 6.03 0 3.06 0 0 Z " fill="#03A992" transform="translate(30,77)"/>
<path d="M0 0 C2.64 0 5.28 0 8 0 C8 0.33 8 0.66 8 1 C5.36 1 2.72 1 0 1 C0 0.67 0 0.34 0 0 Z " fill="#04A992" transform="translate(129,201)"/>
<path d="M0 0 C0.33 0.99 0.66 1.98 1 3 C0.67 3.66 0.34 4.32 0 5 C-0.66 5 -1.32 5 -2 5 C-1.34 3.35 -0.68 1.7 0 0 Z " fill="#04A992" transform="translate(95,179)"/>
<path d="M0 0 C0.99 0.33 1.98 0.66 3 1 C2.34 2.32 1.68 3.64 1 5 C0.67 3.35 0.34 1.7 0 0 Z " fill="#05AA93" transform="translate(76,172)"/>
<path d="M0 0 C0.33 0 0.66 0 1 0 C1 2.64 1 5.28 1 8 C0.67 8 0.34 8 0 8 C0 5.36 0 2.72 0 0 Z " fill="#05A992" transform="translate(64,119)"/>
<path d="M0 0 C2.64 0 5.28 0 8 0 C8 0.33 8 0.66 8 1 C5.36 1 2.72 1 0 1 C0 0.67 0 0.34 0 0 Z " fill="#04AA93" transform="translate(124,61)"/>
<path d="M0 0 C1.98 0.99 1.98 0.99 4 2 C3.34 2 2.68 2 2 2 C1.67 2.99 1.34 3.98 1 5 C0.67 3.35 0.34 1.7 0 0 Z " fill="#04AA93" transform="translate(153,49)"/>
<path d="M0 0 C0.33 0 0.66 0 1 0 C1 1.98 1 3.96 1 6 C0.34 5.01 -0.32 4.02 -1 3 C-0.67 2.01 -0.34 1.02 0 0 Z " fill="#04A992" transform="translate(189,166)"/>
<path d="M0 0 C0 0.99 0 1.98 0 3 C-0.99 3 -1.98 3 -3 3 C-2.01 2.01 -1.02 1.02 0 0 Z " fill="#05AA93" transform="translate(210,142)"/>
<path d="M0 0 C0.66 1.32 1.32 2.64 2 4 C1.34 4.66 0.68 5.32 0 6 C0 4.02 0 2.04 0 0 Z " fill="#05AA93" transform="translate(120,123)"/>
<path d="M0 0 C0.33 0 0.66 0 1 0 C1 2.31 1 4.62 1 7 C0.67 7 0.34 7 0 7 C0 4.69 0 2.38 0 0 Z " fill="#04AA93" transform="translate(192,122)"/>
<path d="M0 0 C0.33 0 0.66 0 1 0 C1 2.31 1 4.62 1 7 C0.67 7 0.34 7 0 7 C0 4.69 0 2.38 0 0 Z " fill="#06A993" transform="translate(209,112)"/>
<path d="M0 0 C0.33 0 0.66 0 1 0 C1 2.31 1 4.62 1 7 C0.67 7 0.34 7 0 7 C0 4.69 0 2.38 0 0 Z " fill="#05A993" transform="translate(187,112)"/>
<path d="M0 0 C0.33 0 0.66 0 1 0 C1 2.31 1 4.62 1 7 C0.67 7 0.34 7 0 7 C0 4.69 0 2.38 0 0 Z " fill="#04AA93" transform="translate(114,94)"/>
<path d="M0 0 C2.31 0 4.62 0 7 0 C7 0.33 7 0.66 7 1 C4.69 1 2.38 1 0 1 C0 0.67 0 0.34 0 0 Z " fill="#04AB93" transform="translate(49,84)"/>
<path d="M0 0 C0.66 0 1.32 0 2 0 C2 0.66 2 1.32 2 2 C0.68 2.33 -0.64 2.66 -2 3 C-1.34 2.01 -0.68 1.02 0 0 Z " fill="#04AA92" transform="translate(187,82)"/>
<path d="M0 0 C0.33 0 0.66 0 1 0 C1 2.31 1 4.62 1 7 C0.67 7 0.34 7 0 7 C0 4.69 0 2.38 0 0 Z " fill="#04AA93" transform="translate(129,46)"/>
<path d="M0 0 C0.33 0 0.66 0 1 0 C1 2.31 1 4.62 1 7 C0.67 7 0.34 7 0 7 C0 4.69 0 2.38 0 0 Z " fill="#04A992" transform="translate(86,44)"/>
<path d="M0 0 C1.98 0 3.96 0 6 0 C6 0.33 6 0.66 6 1 C4.02 1 2.04 1 0 1 C0 0.67 0 0.34 0 0 Z " fill="#05AB93" transform="translate(134,196)"/>
<path d="M0 0 C0.33 0.66 0.66 1.32 1 2 C0.67 2.66 0.34 3.32 0 4 C-0.66 3.67 -1.32 3.34 -2 3 C-1.34 2.01 -0.68 1.02 0 0 Z " fill="#05A993" transform="translate(171,193)"/>
<path d="M0 0 C1.98 0 3.96 0 6 0 C6 0.33 6 0.66 6 1 C4.02 1 2.04 1 0 1 C0 0.67 0 0.34 0 0 Z " fill="#04A992" transform="translate(132,179)"/>
<path d="M0 0 C1.98 0 3.96 0 6 0 C6 0.33 6 0.66 6 1 C4.02 1 2.04 1 0 1 C0 0.67 0 0.34 0 0 Z " fill="#04AA93" transform="translate(119,179)"/>
<path d="M0 0 C0.33 0.66 0.66 1.32 1 2 C-0.65 2 -2.3 2 -4 2 C-2.68 1.34 -1.36 0.68 0 0 Z " fill="#05A992" transform="translate(198,139)"/>
<path d="M0 0 C0.33 0.66 0.66 1.32 1 2 C-0.65 2 -2.3 2 -4 2 C-2.68 1.34 -1.36 0.68 0 0 Z " fill="#05AA93" transform="translate(132,123)"/>
<path d="M0 0 C0.99 0 1.98 0 3 0 C3 0.66 3 1.32 3 2 C1.68 1.67 0.36 1.34 -1 1 C-0.67 0.67 -0.34 0.34 0 0 Z " fill="#04A992" transform="translate(201,108)"/>
<path d="M0 0 C0.33 0 0.66 0 1 0 C1 1.98 1 3.96 1 6 C0.67 6 0.34 6 0 6 C0 4.02 0 2.04 0 0 Z " fill="#04A992" transform="translate(150,91)"/>
<path d="M0 0 C1.65 0 3.3 0 5 0 C3.02 0.99 3.02 0.99 1 2 C0.67 1.34 0.34 0.68 0 0 Z " fill="#06A993" transform="translate(106,52)"/>
<path d="M0 0 C1.98 0.99 1.98 0.99 4 2 C2.68 2 1.36 2 0 2 C0 1.34 0 0.68 0 0 Z " fill="#05A993" transform="translate(115,194)"/>
<path d="M0 0 C0.99 0.495 0.99 0.495 2 1 C2 1.66 2 2.32 2 3 C1.34 3 0.68 3 0 3 C0 2.01 0 1.02 0 0 Z " fill="#04AA93" transform="translate(101,179)"/>
<path d="M0 0 C0.33 0 0.66 0 1 0 C1 1.65 1 3.3 1 5 C0.67 5 0.34 5 0 5 C0 3.35 0 1.7 0 0 Z " fill="#05A992" transform="translate(215,144)"/>
<path d="M0 0 C0.33 0.66 0.66 1.32 1 2 C0.01 2.33 -0.98 2.66 -2 3 C-2 2.34 -2 1.68 -2 1 C-1.34 0.67 -0.68 0.34 0 0 Z " fill="#04A992" transform="translate(59,145)"/>
<path d="M0 0 C0.33 1.32 0.66 2.64 1 4 C0.34 3.34 -0.32 2.68 -1 2 C-0.67 1.34 -0.34 0.68 0 0 Z " fill="#04AA92" transform="translate(112,134)"/>
<path d="M0 0 C0.33 0 0.66 0 1 0 C1 1.65 1 3.3 1 5 C0.67 5 0.34 5 0 5 C0 3.35 0 1.7 0 0 Z " fill="#05AA93" transform="translate(48,132)"/>
<path d="M0 0 C1.65 0 3.3 0 5 0 C5 0.33 5 0.66 5 1 C3.35 1 1.7 1 0 1 C0 0.67 0 0.34 0 0 Z " fill="#04AA92" transform="translate(138,129)"/>
<path d="M0 0 C0.33 0 0.66 0 1 0 C1 1.65 1 3.3 1 5 C0.67 5 0.34 5 0 5 C0 3.35 0 1.7 0 0 Z " fill="#05A992" transform="translate(187,125)"/>
<path d="M0 0 C1.65 0 3.3 0 5 0 C5 0.33 5 0.66 5 1 C3.35 1 1.7 1 0 1 C0 0.67 0 0.34 0 0 Z " fill="#05AA93" transform="translate(55,126)"/>
<path d="M0 0 C0.33 0 0.66 0 1 0 C1 1.65 1 3.3 1 5 C0.67 5 0.34 5 0 5 C0 3.35 0 1.7 0 0 Z " fill="#04A992" transform="translate(112,121)"/>
<path d="M0 0 C0.33 0 0.66 0 1 0 C1 1.65 1 3.3 1 5 C0.67 5 0.34 5 0 5 C0 3.35 0 1.7 0 0 Z " fill="#05AA93" transform="translate(121,114)"/>
<path d="M0 0 C0.33 0 0.66 0 1 0 C1 1.65 1 3.3 1 5 C0.67 5 0.34 5 0 5 C0 3.35 0 1.7 0 0 Z " fill="#04AA92" transform="translate(113,112)"/>
<path d="M0 0 C1.485 0.99 1.485 0.99 3 2 C2.01 2.33 1.02 2.66 0 3 C0 2.01 0 1.02 0 0 Z " fill="#04A992" transform="translate(123,107)"/>
<path d="M0 0 C0.33 0.99 0.66 1.98 1 3 C0.01 2.67 -0.98 2.34 -2 2 C-1.34 2 -0.68 2 0 2 C0 1.34 0 0.68 0 0 Z " fill="#04AA93" transform="translate(201,100)"/>
<path d="M0 0 C0.33 0 0.66 0 1 0 C1 1.65 1 3.3 1 5 C0.67 5 0.34 5 0 5 C0 3.35 0 1.7 0 0 Z " fill="#04A992" transform="translate(149,99)"/>
<path d="M0 0 C1.65 0 3.3 0 5 0 C5 0.33 5 0.66 5 1 C3.35 1 1.7 1 0 1 C0 0.67 0 0.34 0 0 Z " fill="#03A992" transform="translate(35,93)"/>
<path d="M0 0 C1.485 0.99 1.485 0.99 3 2 C2.01 2.33 1.02 2.66 0 3 C0 2.01 0 1.02 0 0 Z " fill="#04A992" transform="translate(67,91)"/>
<path d="M0 0 C0.33 0 0.66 0 1 0 C1 1.65 1 3.3 1 5 C0.67 5 0.34 5 0 5 C0 3.35 0 1.7 0 0 Z " fill="#05A993" transform="translate(81,88)"/>
<path d="M0 0 C0.66 0.99 1.32 1.98 2 3 C1.01 2.67 0.02 2.34 -1 2 C-0.67 1.34 -0.34 0.68 0 0 Z " fill="#05AA93" transform="translate(79,82)"/>
<path d="M0 0 C1.32 0 2.64 0 4 0 C3.67 0.66 3.34 1.32 3 2 C2.01 1.34 1.02 0.68 0 0 Z " fill="#05A992" transform="translate(58,74)"/>
<path d="M0 0 C0.33 0 0.66 0 1 0 C1 1.65 1 3.3 1 5 C0.67 5 0.34 5 0 5 C0 3.35 0 1.7 0 0 Z " fill="#05A992" transform="translate(77,68)"/>
<path d="M0 0 C1.32 0.33 2.64 0.66 4 1 C2.68 1.33 1.36 1.66 0 2 C0 1.34 0 0.68 0 0 Z " fill="#04A993" transform="translate(172,64)"/>
<path d="M0 0 C0.99 0.99 1.98 1.98 3 3 C2.01 2.67 1.02 2.34 0 2 C0 1.34 0 0.68 0 0 Z " fill="#05AA93" transform="translate(175,61)"/>
<path d="M0 0 C1.65 0 3.3 0 5 0 C5 0.33 5 0.66 5 1 C3.35 1 1.7 1 0 1 C0 0.67 0 0.34 0 0 Z " fill="#05A993" transform="translate(135,62)"/>
<path d="M0 0 C1.485 0.99 1.485 0.99 3 2 C1.68 1.67 0.36 1.34 -1 1 C-0.67 0.67 -0.34 0.34 0 0 Z " fill="#05AA93" transform="translate(59,59)"/>
<path d="M0 0 C0.33 0 0.66 0 1 0 C1 1.65 1 3.3 1 5 C0.67 5 0.34 5 0 5 C0 3.35 0 1.7 0 0 Z " fill="#04AA93" transform="translate(82,49)"/>
<path d="M0 0 C1.65 0 3.3 0 5 0 C5 0.33 5 0.66 5 1 C3.35 1 1.7 1 0 1 C0 0.67 0 0.34 0 0 Z " fill="#05A993" transform="translate(117,45)"/>
<path d="M0 0 C0.66 0.66 1.32 1.32 2 2 C1.01 1.67 0.02 1.34 -1 1 C-0.67 0.67 -0.34 0.34 0 0 Z " fill="#04A992" transform="translate(105,191)"/>
<path d="M0 0 C0.99 1.485 0.99 1.485 2 3 C1.34 3 0.68 3 0 3 C0 2.01 0 1.02 0 0 Z " fill="#05AA93" transform="translate(166,187)"/>
<path d="M0 0 C0 3 0 3 0 3 Z " fill="#06A993" transform="translate(187,186)"/>
<path d="M0 0 C1 4 1 4 1 4 Z " fill="#04AB93" transform="translate(122,185)"/>
<path d="M0 0 C0.99 0.33 1.98 0.66 3 1 C2.01 1 1.02 1 0 1 C0 0.67 0 0.34 0 0 Z " fill="#04AB93" transform="translate(82,180)"/>
<path d="M0 0 C4 1 4 1 4 1 Z " fill="#05AA93" transform="translate(181,176)"/>
<path d="M0 0 C1 4 1 4 1 4 Z " fill="#05A993" transform="translate(176,163)"/>
<path d="M0 0 C0.66 0 1.32 0 2 0 C1.67 0.99 1.34 1.98 1 3 C0.67 2.01 0.34 1.02 0 0 Z " fill="#04AA93" transform="translate(66,163)"/>
<path d="M0 0 C1 4 1 4 1 4 Z " fill="#05AA93" transform="translate(104,131)"/>
<path d="M0 0 C1 4 1 4 1 4 Z " fill="#04A992" transform="translate(69,126)"/>
<path d="M0 0 C0.99 0.495 0.99 0.495 2 1 C1.34 1.66 0.68 2.32 0 3 C0 2.01 0 1.02 0 0 Z " fill="#04A992" transform="translate(153,124)"/>
<path d="M0 0 C4 1 4 1 4 1 Z " fill="#05A993" transform="translate(57,116)"/>
<path d="M0 0 C1 4 1 4 1 4 Z " fill="#04AA93" transform="translate(192,112)"/>
<path d="M0 0 C1 4 1 4 1 4 Z " fill="#04AA93" transform="translate(156,110)"/>
<path d="M0 0 C4 1 4 1 4 1 Z " fill="#06A993" transform="translate(66,109)"/>
<path d="M0 0 C1 4 1 4 1 4 Z " fill="#05A993" transform="translate(148,106)"/>
<path d="M0 0 C1 4 1 4 1 4 Z " fill="#04A992" transform="translate(208,104)"/>
<path d="M0 0 C1 4 1 4 1 4 Z " fill="#06AA93" transform="translate(164,102)"/>
<path d="M0 0 C1 4 1 4 1 4 Z " fill="#04AA93" transform="translate(36,100)"/>
<path d="M0 0 C1 4 1 4 1 4 Z " fill="#05A993" transform="translate(139,98)"/>
<path d="M0 0 C0.33 0.99 0.66 1.98 1 3 C0.34 2.67 -0.32 2.34 -1 2 C-0.67 1.34 -0.34 0.68 0 0 Z " fill="#04AA92" transform="translate(106,94)"/>
<path d="M0 0 C0.66 0.66 1.32 1.32 2 2 C1.01 2.495 1.01 2.495 0 3 C0 2.01 0 1.02 0 0 Z " fill="#04AA93" transform="translate(127,92)"/>
<path d="M0 0 C4 1 4 1 4 1 Z " fill="#04AA93" transform="translate(132,90)"/>
<path d="M0 0 C1 4 1 4 1 4 Z " fill="#05A992" transform="translate(97,77)"/>
<path d="M0 0 C0.33 0.66 0.66 1.32 1 2 C0.01 1.67 -0.98 1.34 -2 1 C-1.34 0.67 -0.68 0.34 0 0 Z " fill="#04AA93" transform="translate(59,77)"/>
<path d="M0 0 C1 4 1 4 1 4 Z " fill="#05A992" transform="translate(31,72)"/>
<path d="M0 0 C0 3 0 3 0 3 Z " fill="#05A992" transform="translate(46,70)"/>
<path d="M0 0 C0.66 0.66 1.32 1.32 2 2 C1.01 2.495 1.01 2.495 0 3 C0 2.01 0 1.02 0 0 Z " fill="#03A992" transform="translate(180,66)"/>
<path d="M0 0 C4 1 4 1 4 1 Z " fill="#05A992" transform="translate(116,62)"/>
<path d="M0 0 C0.99 0.33 1.98 0.66 3 1 C2.01 1 1.02 1 0 1 C0 0.67 0 0.34 0 0 Z " fill="#04AA92" transform="translate(143,46)"/>
<path d="M0 0 C1 4 1 4 1 4 Z " fill="#03A992" transform="translate(77,43)"/>
<path d="M0 0 C0.33 0.99 0.66 1.98 1 3 C0.34 2.67 -0.32 2.34 -1 2 C-0.67 1.34 -0.34 0.68 0 0 Z " fill="#04A992" transform="translate(68,41)"/>
<path d="M0 0 C4 1 4 1 4 1 Z " fill="#05A993" transform="translate(144,41)"/>
<path d="M0 0 C4 1 4 1 4 1 Z " fill="#06A993" transform="translate(137,40)"/>
<path d="M0 0 C4 1 4 1 4 1 Z " fill="#05A992" transform="translate(62,35)"/>
<path d="M0 0 C3 1 3 1 3 1 Z " fill="#03A992" transform="translate(109,200)"/>
<path d="M0 0 C3 1 3 1 3 1 Z " fill="#04AA93" transform="translate(196,197)"/>
<path d="M0 0 C3 1 3 1 3 1 Z " fill="#05AB93" transform="translate(199,196)"/>
<path d="M0 0 C3 1 3 1 3 1 Z " fill="#05AB93" transform="translate(110,194)"/>
<path d="M0 0 C3 1 3 1 3 1 Z " fill="#03AA92" transform="translate(116,193)"/>
<path d="M0 0 C3 1 3 1 3 1 Z " fill="#03A992" transform="translate(161,190)"/>
<path d="M0 0 C3 1 3 1 3 1 Z " fill="#04AA93" transform="translate(109,188)"/>
<path d="M0 0 C0.66 0 1.32 0 2 0 C1.67 0.66 1.34 1.32 1 2 C0.67 1.34 0.34 0.68 0 0 Z " fill="#05A992" transform="translate(98,186)"/>
<path d="" fill="#04A992" transform="translate(0,0)"/>
<path d="M0 0 C0.33 0.66 0.66 1.32 1 2 C0.34 1.67 -0.32 1.34 -1 1 C-0.67 0.67 -0.34 0.34 0 0 Z " fill="#04AB93" transform="translate(186,184)"/>
<path d="M0 0 C3 1 3 1 3 1 Z " fill="#04AA93" transform="translate(142,183)"/>
<path d="M0 0 C3 1 3 1 3 1 Z " fill="#04AA93" transform="translate(140,178)"/>
<path d="M0 0 C0.66 0 1.32 0 2 0 C1.67 0.66 1.34 1.32 1 2 C0.67 1.34 0.34 0.68 0 0 Z " fill="#05AA93" transform="translate(202,177)"/>
<path d="M0 0 C0.66 0 1.32 0 2 0 C1.67 0.66 1.34 1.32 1 2 C0.67 1.34 0.34 0.68 0 0 Z " fill="#06A993" transform="translate(88,174)"/>
<path d="M0 0 C3 1 3 1 3 1 Z " fill="#05A992" transform="translate(182,172)"/>
<path d="M0 0 C0.66 0.66 1.32 1.32 2 2 C1.34 2 0.68 2 0 2 C0 1.34 0 0.68 0 0 Z " fill="#04AB93" transform="translate(85,168)"/>
<path d="M0 0 C0.99 0.495 0.99 0.495 2 1 C1.01 1.495 1.01 1.495 0 2 C0 1.34 0 0.68 0 0 Z " fill="#04A992" transform="translate(63,158)"/>
<path d="M0 0 C3 1 3 1 3 1 Z " fill="#04AA93" transform="translate(182,156)"/>
<path d="M0 0 C0.33 0.66 0.66 1.32 1 2 C0.34 1.67 -0.32 1.34 -1 1 C-0.67 0.67 -0.34 0.34 0 0 Z " fill="#04A992" transform="translate(73,153)"/>
<path d="M0 0 C0.66 0.66 1.32 1.32 2 2 C1.34 2 0.68 2 0 2 C0 1.34 0 0.68 0 0 Z " fill="#03AA92" transform="translate(214,150)"/>
<path d="M0 0 C0.66 0.66 1.32 1.32 2 2 C1.34 2 0.68 2 0 2 C0 1.34 0 0.68 0 0 Z " fill="#04A992" transform="translate(66,149)"/>
<path d="" fill="#04A992" transform="translate(0,0)"/>
<path d="M0 0 C3 1 3 1 3 1 Z " fill="#05AA93" transform="translate(102,142)"/>
<path d="M0 0 C0.66 0.66 1.32 1.32 2 2 C1.34 2 0.68 2 0 2 C0 1.34 0 0.68 0 0 Z " fill="#04AA93" transform="translate(55,140)"/>
<path d="M0 0 C3 1 3 1 3 1 Z " fill="#04A992" transform="translate(115,140)"/>
<path d="" fill="#04AA93" transform="translate(0,0)"/>
<path d="" fill="#05A992" transform="translate(0,0)"/>
<path d="" fill="#05AA93" transform="translate(0,0)"/>
<path d="" fill="#04A992" transform="translate(0,0)"/>
<path d="" fill="#04A992" transform="translate(0,0)"/>
<path d="" fill="#05AA93" transform="translate(0,0)"/>
<path d="" fill="#04A992" transform="translate(0,0)"/>
<path d="" fill="#03AA92" transform="translate(0,0)"/>
<path d="" fill="#04A992" transform="translate(0,0)"/>
<path d="" fill="#05A992" transform="translate(0,0)"/>
<path d="" fill="#04AA93" transform="translate(0,0)"/>
<path d="" fill="#03A993" transform="translate(0,0)"/>
<path d="M0 0 C3 1 3 1 3 1 Z " fill="#05A992" transform="translate(43,117)"/>
<path d="" fill="#04A992" transform="translate(0,0)"/>
<path d="" fill="#04AA93" transform="translate(0,0)"/>
<path d="" fill="#05A992" transform="translate(0,0)"/>
<path d="" fill="#05A992" transform="translate(0,0)"/>
<path d="" fill="#03A992" transform="translate(0,0)"/>
<path d="" fill="#03A992" transform="translate(0,0)"/>
<path d="" fill="#04A992" transform="translate(0,0)"/>
<path d="" fill="#04A992" transform="translate(0,0)"/>
<path d="" fill="#05A992" transform="translate(0,0)"/>
<path d="" fill="#04A992" transform="translate(0,0)"/>
<path d="" fill="#04A992" transform="translate(0,0)"/>
<path d="M0 0 C3 1 3 1 3 1 Z " fill="#04AA93" transform="translate(195,101)"/>
<path d="" fill="#04A992" transform="translate(0,0)"/>
<path d="" fill="#06A993" transform="translate(0,0)"/>
<path d="" fill="#05AA93" transform="translate(0,0)"/>
<path d="M0 0 C0.33 0.66 0.66 1.32 1 2 C0.34 1.67 -0.32 1.34 -1 1 C-0.67 0.67 -0.34 0.34 0 0 Z " fill="#04AA94" transform="translate(50,99)"/>
<path d="M0 0 C0.66 0 1.32 0 2 0 C1.67 0.66 1.34 1.32 1 2 C0.67 1.34 0.34 0.68 0 0 Z " fill="#03AA93" transform="translate(131,96)"/>
<path d="" fill="#04A992" transform="translate(0,0)"/>
<path d="" fill="#05AA93" transform="translate(0,0)"/>
<path d="M0 0 C0.99 0.495 0.99 0.495 2 1 C1.01 1.495 1.01 1.495 0 2 C0 1.34 0 0.68 0 0 Z " fill="#04AB93" transform="translate(159,92)"/>
<path d="M0 0 C0.66 0 1.32 0 2 0 C1.67 0.66 1.34 1.32 1 2 C0.67 1.34 0.34 0.68 0 0 Z " fill="#04AB93" transform="translate(187,89)"/>
<path d="M0 0 C3 1 3 1 3 1 Z " fill="#04A992" transform="translate(165,88)"/>
<path d="M0 0 C0.66 0 1.32 0 2 0 C1.67 0.66 1.34 1.32 1 2 C0.67 1.34 0.34 0.68 0 0 Z " fill="#05A993" transform="translate(170,79)"/>
<path d="M0 0 C3 1 3 1 3 1 Z " fill="#05AA93" transform="translate(51,75)"/>
<path d="M0 0 C0.66 0.66 1.32 1.32 2 2 C1.34 2 0.68 2 0 2 C0 1.34 0 0.68 0 0 Z " fill="#05AB93" transform="translate(186,72)"/>
<path d="M0 0 C3 1 3 1 3 1 Z " fill="#05A992" transform="translate(108,64)"/>
<path d="M0 0 C3 1 3 1 3 1 Z " fill="#04A992" transform="translate(112,63)"/>
<path d="M0 0 C3 1 3 1 3 1 Z " fill="#06A993" transform="translate(88,62)"/>
<path d="M0 0 C0.66 0 1.32 0 2 0 C1.67 0.66 1.34 1.32 1 2 C0.67 1.34 0.34 0.68 0 0 Z " fill="#03AA92" transform="translate(158,60)"/>
<path d="M0 0 C3 1 3 1 3 1 Z " fill="#05A992" transform="translate(150,60)"/>
<path d="M0 0 C0.33 0.66 0.66 1.32 1 2 C0.34 1.67 -0.32 1.34 -1 1 C-0.67 0.67 -0.34 0.34 0 0 Z " fill="#03AB93" transform="translate(68,60)"/>
<path d="M0 0 C3 1 3 1 3 1 Z " fill="#05AA93" transform="translate(147,59)"/>
<path d="M0 0 C3 1 3 1 3 1 Z " fill="#06AB94" transform="translate(144,58)"/>
<path d="M0 0 C3 1 3 1 3 1 Z " fill="#05A992" transform="translate(148,57)"/>
<path d="M0 0 C3 1 3 1 3 1 Z " fill="#04AB93" transform="translate(140,57)"/>
<path d="M0 0 C3 1 3 1 3 1 Z " fill="#05AA93" transform="translate(115,57)"/>
<path d="M0 0 C0.99 0.495 0.99 0.495 2 1 C1.01 1.495 1.01 1.495 0 2 C0 1.34 0 0.68 0 0 Z " fill="#05AB93" transform="translate(167,56)"/>
<path d="M0 0 C0.66 0.66 1.32 1.32 2 2 C1.34 2 0.68 2 0 2 C0 1.34 0 0.68 0 0 Z " fill="#03A992" transform="translate(161,55)"/>
<path d="" fill="#06A993" transform="translate(0,0)"/>
<path d="M0 0 C3 1 3 1 3 1 Z " fill="#04AA93" transform="translate(113,46)"/>
<path d="M0 0 C3 1 3 1 3 1 Z " fill="#04AA93" transform="translate(149,42)"/>
<path d="M0 0 C3 1 3 1 3 1 Z " fill="#06A993" transform="translate(121,33)"/>
<path d="M0 0 C2 1 2 1 2 1 Z " fill="#05AB93" transform="translate(105,199)"/>
<path d="M0 0 C2 1 2 1 2 1 Z " fill="#04A992" transform="translate(102,198)"/>
<path d="M0 0 C2 1 2 1 2 1 Z " fill="#03A992" transform="translate(99,197)"/>
<path d="M0 0 C2 1 2 1 2 1 Z " fill="#04A992" transform="translate(96,196)"/>
<path d="M0 0 C2 1 2 1 2 1 Z " fill="#04AA92" transform="translate(94,195)"/>
<path d="M0 0 C2 1 2 1 2 1 Z " fill="#06A993" transform="translate(92,194)"/>
<path d="" fill="#06A993" transform="translate(0,0)"/>
<path d="M0 0 C2 1 2 1 2 1 Z " fill="#04AC94" transform="translate(107,193)"/>
<path d="M0 0 C2 1 2 1 2 1 Z " fill="#06A993" transform="translate(88,192)"/>
<path d="" fill="#06A993" transform="translate(0,0)"/>
<path d="" fill="#04AA92" transform="translate(0,0)"/>
<path d="M0 0 C2 1 2 1 2 1 Z " fill="#05AC94" transform="translate(101,191)"/>
<path d="M0 0 C2 1 2 1 2 1 Z " fill="#04A992" transform="translate(86,191)"/>
<path d="M0 0 C2 1 2 1 2 1 Z " fill="#06A993" transform="translate(103,190)"/>
<path d="M0 0 C2 1 2 1 2 1 Z " fill="#04A992" transform="translate(99,190)"/>
<path d="" fill="#05AA93" transform="translate(0,0)"/>
<path d="M0 0 C2 1 2 1 2 1 Z " fill="#04A992" transform="translate(97,189)"/>
<path d="M0 0 C2 1 2 1 2 1 Z " fill="#05AB93" transform="translate(95,188)"/>
<path d="M0 0 C2 1 2 1 2 1 Z " fill="#05AA93" transform="translate(80,187)"/>
<path d="" fill="#06A993" transform="translate(0,0)"/>
<path d="M0 0 C2 1 2 1 2 1 Z " fill="#05AC94" transform="translate(89,185)"/>
<path d="M0 0 C2 1 2 1 2 1 Z " fill="#05AA93" transform="translate(86,183)"/>
<path d="M0 0 C2 1 2 1 2 1 Z " fill="#04A992" transform="translate(146,182)"/>
<path d="M0 0 C2 1 2 1 2 1 Z " fill="#04A992" transform="translate(174,181)"/>
<path d="M0 0 C2 1 2 1 2 1 Z " fill="#04A992" transform="translate(149,181)"/>
<path d="M0 0 C2 1 2 1 2 1 Z " fill="#06A993" transform="translate(151,180)"/>
<path d="" fill="#04AA93" transform="translate(0,0)"/>
<path d="M0 0 C2 1 2 1 2 1 Z " fill="#05AB93" transform="translate(115,178)"/>
<path d="M0 0 C2 1 2 1 2 1 Z " fill="#05AA93" transform="translate(79,178)"/>
<path d="M0 0 C2 1 2 1 2 1 Z " fill="#05AA93" transform="translate(186,177)"/>
<path d="M0 0 C2 1 2 1 2 1 Z " fill="#04A992" transform="translate(145,177)"/>
<path d="M0 0 C2 1 2 1 2 1 Z " fill="#05AB93" transform="translate(111,177)"/>
<path d="" fill="#05AC94" transform="translate(0,0)"/>
<path d="M0 0 C2 1 2 1 2 1 Z " fill="#06A993" transform="translate(159,176)"/>
<path d="M0 0 C2 1 2 1 2 1 Z " fill="#04AA92" transform="translate(148,176)"/>
<path d="M0 0 C2 1 2 1 2 1 Z " fill="#04A992" transform="translate(108,176)"/>
<path d="M0 0 C2 1 2 1 2 1 Z " fill="#05AA93" transform="translate(151,175)"/>
<path d="M0 0 C2 1 2 1 2 1 Z " fill="#04AA92" transform="translate(105,175)"/>
<path d="M0 0 C2 1 2 1 2 1 Z " fill="#04A992" transform="translate(153,174)"/>
<path d="" fill="#06A993" transform="translate(0,0)"/>
<path d="M0 0 C2 1 2 1 2 1 Z " fill="#05AA93" transform="translate(212,172)"/>
<path d="M0 0 C2 1 2 1 2 1 Z " fill="#05AB93" transform="translate(89,172)"/>
<path d="M0 0 C2 1 2 1 2 1 Z " fill="#06A993" transform="translate(159,171)"/>
<path d="M0 0 C2 1 2 1 2 1 Z " fill="#05AA93" transform="translate(97,171)"/>
<path d="" fill="#05AA93" transform="translate(0,0)"/>
<path d="" fill="#05AA93" transform="translate(0,0)"/>
<path d="M0 0 C2 1 2 1 2 1 Z " fill="#06A993" transform="translate(162,169)"/>
<path d="" fill="#05AA93" transform="translate(0,0)"/>
<path d="" fill="#04A992" transform="translate(0,0)"/>
<path d="M0 0 C2 1 2 1 2 1 Z " fill="#06AA94" transform="translate(91,167)"/>
<path d="" fill="#06A993" transform="translate(0,0)"/>
<path d="" fill="#04A992" transform="translate(0,0)"/>
<path d="" fill="#04AA93" transform="translate(0,0)"/>
<path d="" fill="#04A992" transform="translate(0,0)"/>
<path d="" fill="#04A992" transform="translate(0,0)"/>
<path d="" fill="#06A993" transform="translate(0,0)"/>
<path d="" fill="#05AA93" transform="translate(0,0)"/>
<path d="" fill="#04A992" transform="translate(0,0)"/>
<path d="" fill="#04A992" transform="translate(0,0)"/>
<path d="" fill="#04AA92" transform="translate(0,0)"/>
<path d="M0 0 C2 1 2 1 2 1 Z " fill="#06AA94" transform="translate(63,152)"/>
<path d="M0 0 C2 1 2 1 2 1 Z " fill="#06A993" transform="translate(62,149)"/>
<path d="" fill="#04A992" transform="translate(0,0)"/>
<path d="" fill="#05AA93" transform="translate(0,0)"/>
<path d="" fill="#05AC94" transform="translate(0,0)"/>
<path d="" fill="#06A993" transform="translate(0,0)"/>
<path d="" fill="#04AB93" transform="translate(0,0)"/>
<path d="" fill="#04A992" transform="translate(0,0)"/>
<path d="M0 0 C2 1 2 1 2 1 Z " fill="#06A993" transform="translate(123,140)"/>
<path d="" fill="#04A992" transform="translate(0,0)"/>
<path d="" fill="#06AA94" transform="translate(0,0)"/>
<path d="" fill="#04A992" transform="translate(0,0)"/>
<path d="M0 0 C2 1 2 1 2 1 Z " fill="#06A993" transform="translate(130,137)"/>
<path d="M0 0 C2 1 2 1 2 1 Z " fill="#05AA93" transform="translate(104,136)"/>
<path d="" fill="#04A992" transform="translate(0,0)"/>
<path d="M0 0 C2 1 2 1 2 1 Z " fill="#06A993" transform="translate(209,133)"/>
<path d="" fill="#06A993" transform="translate(0,0)"/>
<path d="" fill="#04AA92" transform="translate(0,0)"/>
<path d="" fill="#04A992" transform="translate(0,0)"/>
<path d="M0 0 C2 1 2 1 2 1 Z " fill="#04AC94" transform="translate(125,130)"/>
<path d="" fill="#04AA92" transform="translate(0,0)"/>
<path d="" fill="#05AB93" transform="translate(0,0)"/>
<path d="" fill="#04A992" transform="translate(0,0)"/>
<path d="" fill="#04A992" transform="translate(0,0)"/>
<path d="" fill="#04A992" transform="translate(0,0)"/>
<path d="" fill="#06A993" transform="translate(0,0)"/>
<path d="" fill="#04A992" transform="translate(0,0)"/>
<path d="" fill="#05AA93" transform="translate(0,0)"/>
<path d="" fill="#04A992" transform="translate(0,0)"/>
<path d="" fill="#05AA93" transform="translate(0,0)"/>
<path d="" fill="#04AA92" transform="translate(0,0)"/>
<path d="" fill="#04A992" transform="translate(0,0)"/>
<path d="" fill="#06A993" transform="translate(0,0)"/>
<path d="" fill="#06A993" transform="translate(0,0)"/>
<path d="" fill="#06A993" transform="translate(0,0)"/>
<path d="" fill="#04A992" transform="translate(0,0)"/>
<path d="" fill="#06A993" transform="translate(0,0)"/>
<path d="" fill="#04A992" transform="translate(0,0)"/>
<path d="" fill="#04A992" transform="translate(0,0)"/>
<path d="" fill="#04A992" transform="translate(0,0)"/>
<path d="" fill="#04A992" transform="translate(0,0)"/>
<path d="" fill="#04A992" transform="translate(0,0)"/>
<path d="M0 0 C2 1 2 1 2 1 Z " fill="#06A993" transform="translate(62,108)"/>
<path d="" fill="#04A992" transform="translate(0,0)"/>
<path d="" fill="#05AA93" transform="translate(0,0)"/>
<path d="M0 0 C2 1 2 1 2 1 Z " fill="#05AB93" transform="translate(59,107)"/>
<path d="" fill="#04AA92" transform="translate(0,0)"/>
<path d="" fill="#04A992" transform="translate(0,0)"/>
<path d="M0 0 C2 1 2 1 2 1 Z " fill="#05AB94" transform="translate(39,105)"/>
<path d="" fill="#04A992" transform="translate(0,0)"/>
<path d="" fill="#06A993" transform="translate(0,0)"/>
<path d="" fill="#05AA93" transform="translate(0,0)"/>
<path d="M0 0 C2 1 2 1 2 1 Z " fill="#04A992" transform="translate(41,104)"/>
<path d="" fill="#05AA93" transform="translate(0,0)"/>
<path d="" fill="#04AA92" transform="translate(0,0)"/>
<path d="M0 0 C2 1 2 1 2 1 Z " fill="#04A992" transform="translate(43,103)"/>
<path d="" fill="#04A992" transform="translate(0,0)"/>
<path d="" fill="#06A993" transform="translate(0,0)"/>
<path d="M0 0 C2 1 2 1 2 1 Z " fill="#05AA93" transform="translate(45,102)"/>
<path d="" fill="#04A992" transform="translate(0,0)"/>
<path d="" fill="#05AA93" transform="translate(0,0)"/>
<path d="" fill="#03A992" transform="translate(0,0)"/>
<path d="" fill="#04A992" transform="translate(0,0)"/>
<path d="M0 0 C2 1 2 1 2 1 Z " fill="#06A993" transform="translate(101,99)"/>
<path d="" fill="#04AC94" transform="translate(0,0)"/>
<path d="" fill="#05AB94" transform="translate(0,0)"/>
<path d="" fill="#03A992" transform="translate(0,0)"/>
<path d="" fill="#03A992" transform="translate(0,0)"/>
<path d="" fill="#05AA93" transform="translate(0,0)"/>
<path d="" fill="#06A993" transform="translate(0,0)"/>
<path d="M0 0 C2 1 2 1 2 1 Z " fill="#06AA94" transform="translate(194,96)"/>
<path d="" fill="#04AA92" transform="translate(0,0)"/>
<path d="" fill="#04AA92" transform="translate(0,0)"/>
<path d="" fill="#06A993" transform="translate(0,0)"/>
<path d="" fill="#04A992" transform="translate(0,0)"/>
<path d="" fill="#04A992" transform="translate(0,0)"/>
<path d="" fill="#05AB93" transform="translate(0,0)"/>
<path d="" fill="#05AA93" transform="translate(0,0)"/>
<path d="" fill="#06A993" transform="translate(0,0)"/>
<path d="" fill="#04A992" transform="translate(0,0)"/>
<path d="M0 0 C2 1 2 1 2 1 Z " fill="#04A992" transform="translate(109,89)"/>
<path d="" fill="#04A992" transform="translate(0,0)"/>
<path d="M0 0 C2 1 2 1 2 1 Z " fill="#04A992" transform="translate(89,88)"/>
<path d="M0 0 C2 1 2 1 2 1 Z " fill="#05AA93" transform="translate(85,88)"/>
<path d="" fill="#06A993" transform="translate(0,0)"/>
<path d="" fill="#04A992" transform="translate(0,0)"/>
<path d="" fill="#06A993" transform="translate(0,0)"/>
<path d="" fill="#04A992" transform="translate(0,0)"/>
<path d="" fill="#04A992" transform="translate(0,0)"/>
<path d="" fill="#04AA93" transform="translate(0,0)"/>
<path d="" fill="#06A993" transform="translate(0,0)"/>
<path d="M0 0 C2 1 2 1 2 1 Z " fill="#04AB93" transform="translate(75,77)"/>
<path d="" fill="#06A993" transform="translate(0,0)"/>
<path d="" fill="#04A992" transform="translate(0,0)"/>
<path d="" fill="#05AA93" transform="translate(0,0)"/>
<path d="" fill="#06A993" transform="translate(0,0)"/>
<path d="M0 0 C2 1 2 1 2 1 Z " fill="#05AA93" transform="translate(171,71)"/>
<path d="M0 0 C2 1 2 1 2 1 Z " fill="#04A992" transform="translate(157,69)"/>
<path d="M0 0 C2 1 2 1 2 1 Z " fill="#04A992" transform="translate(90,69)"/>
<path d="M0 0 C2 1 2 1 2 1 Z " fill="#04A992" transform="translate(84,69)"/>
<path d="" fill="#06A993" transform="translate(0,0)"/>
<path d="M0 0 C2 1 2 1 2 1 Z " fill="#04A992" transform="translate(155,68)"/>
<path d="M0 0 C2 1 2 1 2 1 Z " fill="#04A992" transform="translate(153,67)"/>
<path d="M0 0 C2 1 2 1 2 1 Z " fill="#04A992" transform="translate(151,66)"/>
<path d="M0 0 C2 1 2 1 2 1 Z " fill="#06A993" transform="translate(103,66)"/>
<path d="M0 0 C2 1 2 1 2 1 Z " fill="#04A992" transform="translate(35,66)"/>
<path d="M0 0 C2 1 2 1 2 1 Z " fill="#04A992" transform="translate(148,65)"/>
<path d="M0 0 C2 1 2 1 2 1 Z " fill="#04A992" transform="translate(145,64)"/>
<path d="M0 0 C2 1 2 1 2 1 Z " fill="#04AA93" transform="translate(157,63)"/>
<path d="M0 0 C2 1 2 1 2 1 Z " fill="#04AA92" transform="translate(142,63)"/>
<path d="M0 0 C2 1 2 1 2 1 Z " fill="#06A993" transform="translate(78,63)"/>
<path d="M0 0 C2 1 2 1 2 1 Z " fill="#04AA92" transform="translate(93,61)"/>
<path d="M0 0 C2 1 2 1 2 1 Z " fill="#04A992" transform="translate(85,61)"/>
<path d="M0 0 C2 1 2 1 2 1 Z " fill="#05AB93" transform="translate(82,60)"/>
<path d="" fill="#05AA93" transform="translate(0,0)"/>
<path d="M0 0 C2 1 2 1 2 1 Z " fill="#04A992" transform="translate(112,58)"/>
<path d="" fill="#05AA94" transform="translate(0,0)"/>
<path d="" fill="#06A993" transform="translate(0,0)"/>
<path d="M0 0 C2 1 2 1 2 1 Z " fill="#05AA93" transform="translate(169,50)"/>
<path d="M0 0 C2 1 2 1 2 1 Z " fill="#04A992" transform="translate(163,47)"/>
<path d="M0 0 C2 1 2 1 2 1 Z " fill="#06A993" transform="translate(161,46)"/>
<path d="M0 0 C2 1 2 1 2 1 Z " fill="#04A992" transform="translate(159,45)"/>
<path d="M0 0 C2 1 2 1 2 1 Z " fill="#03A992" transform="translate(156,44)"/>
<path d="M0 0 C2 1 2 1 2 1 Z " fill="#03A992" transform="translate(153,43)"/>
<path d="M0 0 C2 1 2 1 2 1 Z " fill="#03AA93" transform="translate(106,42)"/>
<path d="M0 0 C2 1 2 1 2 1 Z " fill="#05AA93" transform="translate(109,41)"/>
<path d="" fill="#06A993" transform="translate(0,0)"/>
<path d="M0 0 C2 1 2 1 2 1 Z " fill="#04AA93" transform="translate(69,40)"/>
<path d="M0 0 C2 1 2 1 2 1 Z " fill="#05AA94" transform="translate(71,36)"/>
<path d="M0 0 C2 1 2 1 2 1 Z " fill="#04A992" transform="translate(59,36)"/>
<path d="M0 0 C2 1 2 1 2 1 Z " fill="#06A993" transform="translate(115,35)"/>
<path d="M0 0 C2 1 2 1 2 1 Z " fill="#06A993" transform="translate(101,35)"/>
<path d="M0 0 C2 1 2 1 2 1 Z " fill="#05AA93" transform="translate(69,35)"/>
<path d="M0 0 C2 1 2 1 2 1 Z " fill="#06A993" transform="translate(117,34)"/>
<path d="M0 0 C2 1 2 1 2 1 Z " fill="#04A992" transform="translate(103,34)"/>
<path d="" fill="#06A993" transform="translate(0,0)"/>
<path d="" fill="#03A992" transform="translate(0,0)"/>
<path d="" fill="#06A993" transform="translate(0,0)"/>
<path d="" fill="#06A993" transform="translate(0,0)"/>
<path d="" fill="#05AB93" transform="translate(0,0)"/>
<path d="" fill="#05AB93" transform="translate(0,0)"/>
<path d="" fill="#06A993" transform="translate(0,0)"/>
<path d="" fill="#06A993" transform="translate(0,0)"/>
<path d="" fill="#06A993" transform="translate(0,0)"/>
<path d="" fill="#06A993" transform="translate(0,0)"/>
<path d="" fill="#06A993" transform="translate(0,0)"/>
<path d="" fill="#03A992" transform="translate(0,0)"/>
<path d="" fill="#06A993" transform="translate(0,0)"/>
<path d="" fill="#06A993" transform="translate(0,0)"/>
<path d="" fill="#05AB93" transform="translate(0,0)"/>
<path d="" fill="#06A993" transform="translate(0,0)"/>
<path d="" fill="#03A992" transform="translate(0,0)"/>
<path d="" fill="#06A993" transform="translate(0,0)"/>
<path d="" fill="#05AC94" transform="translate(0,0)"/>
<path d="" fill="#06A993" transform="translate(0,0)"/>
<path d="" fill="#05AB93" transform="translate(0,0)"/>
<path d="" fill="#06A993" transform="translate(0,0)"/>
<path d="" fill="#03A992" transform="translate(0,0)"/>
<path d="" fill="#06A993" transform="translate(0,0)"/>
<path d="" fill="#06A993" transform="translate(0,0)"/>
<path d="" fill="#06A993" transform="translate(0,0)"/>
<path d="" fill="#06A993" transform="translate(0,0)"/>
<path d="" fill="#06A993" transform="translate(0,0)"/>
<path d="" fill="#05AC94" transform="translate(0,0)"/>
<path d="" fill="#06A993" transform="translate(0,0)"/>
<path d="" fill="#05AC94" transform="translate(0,0)"/>
<path d="" fill="#06A993" transform="translate(0,0)"/>
<path d="" fill="#05AC94" transform="translate(0,0)"/>
<path d="" fill="#03A992" transform="translate(0,0)"/>
<path d="" fill="#05AB93" transform="translate(0,0)"/>
<path d="" fill="#05AC94" transform="translate(0,0)"/>
<path d="" fill="#03A992" transform="translate(0,0)"/>
<path d="" fill="#05AC94" transform="translate(0,0)"/>
<path d="" fill="#06A993" transform="translate(0,0)"/>
<path d="" fill="#06A993" transform="translate(0,0)"/>
<path d="" fill="#05AC94" transform="translate(0,0)"/>
<path d="" fill="#03A992" transform="translate(0,0)"/>
<path d="" fill="#03A992" transform="translate(0,0)"/>
<path d="" fill="#06A993" transform="translate(0,0)"/>
<path d="" fill="#06A993" transform="translate(0,0)"/>
<path d="" fill="#03AC94" transform="translate(0,0)"/>
<path d="" fill="#05AB93" transform="translate(0,0)"/>
<path d="" fill="#06A993" transform="translate(0,0)"/>
<path d="" fill="#03AC94" transform="translate(0,0)"/>
<path d="" fill="#03A992" transform="translate(0,0)"/>
<path d="" fill="#03A992" transform="translate(0,0)"/>
<path d="" fill="#06A993" transform="translate(0,0)"/>
<path d="" fill="#06A993" transform="translate(0,0)"/>
<path d="" fill="#05AC94" transform="translate(0,0)"/>
<path d="" fill="#05AC94" transform="translate(0,0)"/>
<path d="" fill="#06A993" transform="translate(0,0)"/>
<path d="" fill="#03A992" transform="translate(0,0)"/>
<path d="" fill="#03A992" transform="translate(0,0)"/>
<path d="" fill="#06A993" transform="translate(0,0)"/>
<path d="" fill="#06A993" transform="translate(0,0)"/>
<path d="" fill="#03A992" transform="translate(0,0)"/>
<path d="" fill="#03A992" transform="translate(0,0)"/>
<path d="" fill="#03A992" transform="translate(0,0)"/>
<path d="" fill="#03A992" transform="translate(0,0)"/>
<path d="" fill="#05AC94" transform="translate(0,0)"/>
<path d="" fill="#06A993" transform="translate(0,0)"/>
<path d="" fill="#03A992" transform="translate(0,0)"/>
<path d="" fill="#05AC94" transform="translate(0,0)"/>
<path d="" fill="#05AB93" transform="translate(0,0)"/>
<path d="" fill="#03A992" transform="translate(0,0)"/>
<path d="" fill="#03A992" transform="translate(0,0)"/>
<path d="" fill="#06A993" transform="translate(0,0)"/>
<path d="" fill="#03A992" transform="translate(0,0)"/>
<path d="" fill="#05AC94" transform="translate(0,0)"/>
<path d="" fill="#05AB93" transform="translate(0,0)"/>
<path d="" fill="#05AB93" transform="translate(0,0)"/>
<path d="" fill="#06A993" transform="translate(0,0)"/>
<path d="" fill="#03A992" transform="translate(0,0)"/>
<path d="" fill="#03A992" transform="translate(0,0)"/>
<path d="" fill="#05AC94" transform="translate(0,0)"/>
<path d="" fill="#06A993" transform="translate(0,0)"/>
<path d="" fill="#03A992" transform="translate(0,0)"/>
<path d="" fill="#03A992" transform="translate(0,0)"/>
<path d="" fill="#03A992" transform="translate(0,0)"/>
<path d="" fill="#05AC94" transform="translate(0,0)"/>
<path d="" fill="#06A993" transform="translate(0,0)"/>
<path d="" fill="#06A993" transform="translate(0,0)"/>
<path d="" fill="#05AB93" transform="translate(0,0)"/>
<path d="" fill="#05AB93" transform="translate(0,0)"/>
<path d="" fill="#06A993" transform="translate(0,0)"/>
<path d="" fill="#06A993" transform="translate(0,0)"/>
<path d="" fill="#05AC94" transform="translate(0,0)"/>
<path d="" fill="#05AC94" transform="translate(0,0)"/>
<path d="" fill="#05AB93" transform="translate(0,0)"/>
<path d="" fill="#06A993" transform="translate(0,0)"/>
<path d="" fill="#06A993" transform="translate(0,0)"/>
<path d="" fill="#06A993" transform="translate(0,0)"/>
<path d="" fill="#05AB93" transform="translate(0,0)"/>
<path d="" fill="#05AB93" transform="translate(0,0)"/>
<path d="" fill="#03A992" transform="translate(0,0)"/>
<path d="" fill="#06A993" transform="translate(0,0)"/>
<path d="" fill="#05AC94" transform="translate(0,0)"/>
<path d="" fill="#06A993" transform="translate(0,0)"/>
<path d="" fill="#06A993" transform="translate(0,0)"/>
<path d="" fill="#03A992" transform="translate(0,0)"/>
<path d="" fill="#03AC94" transform="translate(0,0)"/>
<path d="" fill="#06A993" transform="translate(0,0)"/>
<path d="" fill="#05AC94" transform="translate(0,0)"/>
<path d="" fill="#03AC94" transform="translate(0,0)"/>
<path d="" fill="#05AC94" transform="translate(0,0)"/>
<path d="" fill="#05AC94" transform="translate(0,0)"/>
<path d="" fill="#03A992" transform="translate(0,0)"/>
<path d="" fill="#03AC94" transform="translate(0,0)"/>
<path d="" fill="#05AB93" transform="translate(0,0)"/>
<path d="" fill="#03A992" transform="translate(0,0)"/>
<path d="" fill="#05AC94" transform="translate(0,0)"/>
<path d="" fill="#03A992" transform="translate(0,0)"/>
<path d="" fill="#05AC94" transform="translate(0,0)"/>
<path d="" fill="#02A791" transform="translate(0,0)"/>
<path d="" fill="#03A992" transform="translate(0,0)"/>
<path d="" fill="#05AC94" transform="translate(0,0)"/>
<path d="" fill="#03A992" transform="translate(0,0)"/>
<path d="" fill="#06A993" transform="translate(0,0)"/>
<path d="" fill="#05AB93" transform="translate(0,0)"/>
<path d="" fill="#05AB93" transform="translate(0,0)"/>
<path d="" fill="#05AC94" transform="translate(0,0)"/>
<path d="" fill="#05AB93" transform="translate(0,0)"/>
<path d="" fill="#06A993" transform="translate(0,0)"/>
<path d="" fill="#05AC94" transform="translate(0,0)"/>
<path d="" fill="#03A992" transform="translate(0,0)"/>
<path d="" fill="#06A993" transform="translate(0,0)"/>
<path d="" fill="#05AC94" transform="translate(0,0)"/>
<path d="" fill="#06A993" transform="translate(0,0)"/>
<path d="" fill="#03A992" transform="translate(0,0)"/>
<path d="" fill="#05AB93" transform="translate(0,0)"/>
<path d="" fill="#05AC94" transform="translate(0,0)"/>
<path d="" fill="#06A993" transform="translate(0,0)"/>
<path d="" fill="#05AB93" transform="translate(0,0)"/>
<path d="" fill="#03A992" transform="translate(0,0)"/>
<path d="" fill="#05AC94" transform="translate(0,0)"/>
<path d="" fill="#03A992" transform="translate(0,0)"/>
<path d="" fill="#03AC94" transform="translate(0,0)"/>
<path d="" fill="#03A992" transform="translate(0,0)"/>
<path d="" fill="#03AC94" transform="translate(0,0)"/>
<path d="" fill="#03A992" transform="translate(0,0)"/>
<path d="" fill="#05AC94" transform="translate(0,0)"/>
<path d="" fill="#03AC94" transform="translate(0,0)"/>
<path d="" fill="#06A993" transform="translate(0,0)"/>
<path d="" fill="#06A993" transform="translate(0,0)"/>
<path d="" fill="#03A992" transform="translate(0,0)"/>
<path d="" fill="#06A993" transform="translate(0,0)"/>
<path d="" fill="#05AB93" transform="translate(0,0)"/>
<path d="" fill="#05AB93" transform="translate(0,0)"/>
<path d="" fill="#03A992" transform="translate(0,0)"/>
<path d="" fill="#03A992" transform="translate(0,0)"/>
<path d="" fill="#05AC94" transform="translate(0,0)"/>
<path d="" fill="#03A992" transform="translate(0,0)"/>
<path d="" fill="#03A992" transform="translate(0,0)"/>
<path d="" fill="#05AB93" transform="translate(0,0)"/>
<path d="" fill="#03A992" transform="translate(0,0)"/>
<path d="" fill="#06A993" transform="translate(0,0)"/>
<path d="" fill="#03A992" transform="translate(0,0)"/>
<path d="" fill="#06A993" transform="translate(0,0)"/>
<path d="" fill="#05AC94" transform="translate(0,0)"/>
<path d="" fill="#06A993" transform="translate(0,0)"/>
<path d="" fill="#06A993" transform="translate(0,0)"/>
<path d="" fill="#06A993" transform="translate(0,0)"/>
<path d="" fill="#03A992" transform="translate(0,0)"/>
<path d="" fill="#06A993" transform="translate(0,0)"/>
<path d="" fill="#06A993" transform="translate(0,0)"/>
<path d="" fill="#05AC94" transform="translate(0,0)"/>
<path d="" fill="#03A992" transform="translate(0,0)"/>
<path d="" fill="#03A992" transform="translate(0,0)"/>
<path d="" fill="#06A993" transform="translate(0,0)"/>
<path d="" fill="#03A992" transform="translate(0,0)"/>
<path d="" fill="#06A993" transform="translate(0,0)"/>
<path d="" fill="#06A993" transform="translate(0,0)"/>
<path d="" fill="#06A993" transform="translate(0,0)"/>
<path d="" fill="#05AB93" transform="translate(0,0)"/>
<path d="" fill="#05AB93" transform="translate(0,0)"/>
<path d="" fill="#06A993" transform="translate(0,0)"/>
<path d="" fill="#03A992" transform="translate(0,0)"/>
<path d="" fill="#06A993" transform="translate(0,0)"/>
<path d="" fill="#03A992" transform="translate(0,0)"/>
<path d="" fill="#03A992" transform="translate(0,0)"/>
<path d="" fill="#06A993" transform="translate(0,0)"/>
<path d="" fill="#05AC94" transform="translate(0,0)"/>
<path d="" fill="#06A993" transform="translate(0,0)"/>
<path d="" fill="#03A992" transform="translate(0,0)"/>
<path d="" fill="#06A993" transform="translate(0,0)"/>
<path d="" fill="#05AC94" transform="translate(0,0)"/>
<path d="" fill="#06A993" transform="translate(0,0)"/>
<path d="" fill="#05AC94" transform="translate(0,0)"/>
<path d="" fill="#06A993" transform="translate(0,0)"/>
<path d="" fill="#03A992" transform="translate(0,0)"/>
<path d="" fill="#03A992" transform="translate(0,0)"/>
<path d="" fill="#07AC95" transform="translate(0,0)"/>
<path d="" fill="#03A992" transform="translate(0,0)"/>
<path d="" fill="#03A992" transform="translate(0,0)"/>
<path d="" fill="#05AC94" transform="translate(0,0)"/>
<path d="" fill="#06A993" transform="translate(0,0)"/>
<path d="" fill="#06A993" transform="translate(0,0)"/>
<path d="" fill="#05AC94" transform="translate(0,0)"/>
<path d="" fill="#05AC94" transform="translate(0,0)"/>
<path d="" fill="#06A993" transform="translate(0,0)"/>
<path d="" fill="#03A992" transform="translate(0,0)"/>
<path d="" fill="#03AC94" transform="translate(0,0)"/>
<path d="" fill="#05AC94" transform="translate(0,0)"/>
<path d="" fill="#05AB93" transform="translate(0,0)"/>
<path d="" fill="#03AC94" transform="translate(0,0)"/>
<path d="" fill="#03A992" transform="translate(0,0)"/>
<path d="" fill="#06A993" transform="translate(0,0)"/>
<path d="" fill="#06A993" transform="translate(0,0)"/>
<path d="" fill="#03AC94" transform="translate(0,0)"/>
<path d="" fill="#03A992" transform="translate(0,0)"/>
<path d="" fill="#03A992" transform="translate(0,0)"/>
<path d="" fill="#05AB93" transform="translate(0,0)"/>
<path d="" fill="#03A992" transform="translate(0,0)"/>
<path d="" fill="#06A993" transform="translate(0,0)"/>
<path d="" fill="#05AB93" transform="translate(0,0)"/>
<path d="" fill="#03A992" transform="translate(0,0)"/>
<path d="" fill="#03A992" transform="translate(0,0)"/>
<path d="" fill="#03A992" transform="translate(0,0)"/>
<path d="" fill="#05AB93" transform="translate(0,0)"/>
<path d="" fill="#06A993" transform="translate(0,0)"/>
<path d="" fill="#05AC94" transform="translate(0,0)"/>
<path d="" fill="#03A992" transform="translate(0,0)"/>
<path d="" fill="#06A993" transform="translate(0,0)"/>
<path d="" fill="#03A992" transform="translate(0,0)"/>
<path d="" fill="#03A992" transform="translate(0,0)"/>
<path d="" fill="#06A993" transform="translate(0,0)"/>
<path d="" fill="#05AC94" transform="translate(0,0)"/>
<path d="" fill="#05AB93" transform="translate(0,0)"/>
<path d="" fill="#03A992" transform="translate(0,0)"/>
<path d="" fill="#06A993" transform="translate(0,0)"/>
<path d="" fill="#05AB93" transform="translate(0,0)"/>
<path d="" fill="#01AE93" transform="translate(0,0)"/>
<path d="" fill="#06A993" transform="translate(0,0)"/>
<path d="" fill="#03A992" transform="translate(0,0)"/>
<path d="" fill="#05AB93" transform="translate(0,0)"/>
<path d="" fill="#06A993" transform="translate(0,0)"/>
<path d="" fill="#05AB93" transform="translate(0,0)"/>
<path d="" fill="#03A992" transform="translate(0,0)"/>
<path d="" fill="#03A992" transform="translate(0,0)"/>
<path d="" fill="#03A992" transform="translate(0,0)"/>
<path d="" fill="#06A993" transform="translate(0,0)"/>
<path d="" fill="#03A992" transform="translate(0,0)"/>
<path d="" fill="#03A992" transform="translate(0,0)"/>
<path d="" fill="#05AB93" transform="translate(0,0)"/>
<path d="" fill="#05AB93" transform="translate(0,0)"/>
<path d="" fill="#05AB93" transform="translate(0,0)"/>
<path d="" fill="#05AC94" transform="translate(0,0)"/>
<path d="" fill="#03A992" transform="translate(0,0)"/>
<path d="" fill="#05AB93" transform="translate(0,0)"/>
<path d="" fill="#05AC94" transform="translate(0,0)"/>
<path d="" fill="#05AB93" transform="translate(0,0)"/>
<path d="" fill="#03A992" transform="translate(0,0)"/>
<path d="" fill="#06A993" transform="translate(0,0)"/>
<path d="" fill="#03A992" transform="translate(0,0)"/>
<path d="" fill="#06A993" transform="translate(0,0)"/>
<path d="" fill="#05AC94" transform="translate(0,0)"/>
<path d="" fill="#05AC94" transform="translate(0,0)"/>
<path d="" fill="#05AC94" transform="translate(0,0)"/>
<path d="" fill="#05AC94" transform="translate(0,0)"/>
<path d="" fill="#03A992" transform="translate(0,0)"/>
<path d="" fill="#06A993" transform="translate(0,0)"/>
<path d="" fill="#05AC94" transform="translate(0,0)"/>
<path d="" fill="#05AC94" transform="translate(0,0)"/>
<path d="" fill="#03A992" transform="translate(0,0)"/>
<path d="" fill="#06A993" transform="translate(0,0)"/>
<path d="" fill="#04A994" transform="translate(0,0)"/>
<path d="" fill="#03A992" transform="translate(0,0)"/>
<path d="" fill="#06A993" transform="translate(0,0)"/>
<path d="" fill="#05AC94" transform="translate(0,0)"/>
<path d="" fill="#03A992" transform="translate(0,0)"/>
<path d="" fill="#03A992" transform="translate(0,0)"/>
<path d="" fill="#05AC94" transform="translate(0,0)"/>
<path d="" fill="#03A992" transform="translate(0,0)"/>
<path d="" fill="#05AB93" transform="translate(0,0)"/>
<path d="" fill="#05AC94" transform="translate(0,0)"/>
<path d="" fill="#03A992" transform="translate(0,0)"/>
<path d="" fill="#05AB93" transform="translate(0,0)"/>
<path d="" fill="#03A992" transform="translate(0,0)"/>
<path d="" fill="#03A992" transform="translate(0,0)"/>
<path d="" fill="#05AC94" transform="translate(0,0)"/>
<path d="" fill="#05AC94" transform="translate(0,0)"/>
<path d="" fill="#03A992" transform="translate(0,0)"/>
<path d="" fill="#05AC94" transform="translate(0,0)"/>
<path d="" fill="#06A993" transform="translate(0,0)"/>
<path d="" fill="#06A993" transform="translate(0,0)"/>
<path d="" fill="#06A993" transform="translate(0,0)"/>
<path d="" fill="#03A992" transform="translate(0,0)"/>
<path d="" fill="#05AB93" transform="translate(0,0)"/>
<path d="" fill="#05AC94" transform="translate(0,0)"/>
<path d="" fill="#06A993" transform="translate(0,0)"/>
<path d="" fill="#03A992" transform="translate(0,0)"/>
<path d="" fill="#03A992" transform="translate(0,0)"/>
<path d="" fill="#05AC94" transform="translate(0,0)"/>
<path d="" fill="#05AC94" transform="translate(0,0)"/>
<path d="" fill="#03A992" transform="translate(0,0)"/>
<path d="" fill="#06A993" transform="translate(0,0)"/>
<path d="" fill="#03A992" transform="translate(0,0)"/>
<path d="" fill="#03A992" transform="translate(0,0)"/>
<path d="" fill="#03AC94" transform="translate(0,0)"/>
<path d="" fill="#06A993" transform="translate(0,0)"/>
<path d="" fill="#06A993" transform="translate(0,0)"/>
<path d="" fill="#03A992" transform="translate(0,0)"/>
<path d="" fill="#05AC94" transform="translate(0,0)"/>
<path d="" fill="#03A992" transform="translate(0,0)"/>
<path d="" fill="#05AB93" transform="translate(0,0)"/>
<path d="" fill="#03A992" transform="translate(0,0)"/>
<path d="" fill="#06A993" transform="translate(0,0)"/>
<path d="" fill="#05AB93" transform="translate(0,0)"/>
<path d="" fill="#06A993" transform="translate(0,0)"/>
<path d="" fill="#05AC94" transform="translate(0,0)"/>
<path d="" fill="#06A993" transform="translate(0,0)"/>
<path d="" fill="#05AB93" transform="translate(0,0)"/>
<path d="" fill="#03A992" transform="translate(0,0)"/>
<path d="" fill="#06A993" transform="translate(0,0)"/>
<path d="" fill="#05AB93" transform="translate(0,0)"/>
<path d="" fill="#05AC94" transform="translate(0,0)"/>
<path d="" fill="#05AC94" transform="translate(0,0)"/>
<path d="" fill="#06A993" transform="translate(0,0)"/>
<path d="" fill="#03A992" transform="translate(0,0)"/>
<path d="" fill="#06A993" transform="translate(0,0)"/>
<path d="" fill="#06A993" transform="translate(0,0)"/>
<path d="" fill="#06A993" transform="translate(0,0)"/>
<path d="" fill="#06A993" transform="translate(0,0)"/>
<path d="" fill="#06A993" transform="translate(0,0)"/>
<path d="" fill="#06A993" transform="translate(0,0)"/>
<path d="" fill="#06A993" transform="translate(0,0)"/>
<path d="" fill="#03A992" transform="translate(0,0)"/>
<path d="" fill="#06A993" transform="translate(0,0)"/>
<path d="" fill="#06A993" transform="translate(0,0)"/>
<path d="" fill="#06A993" transform="translate(0,0)"/>
<path d="" fill="#06A993" transform="translate(0,0)"/>
<path d="" fill="#05AC94" transform="translate(0,0)"/>
<path d="" fill="#03A992" transform="translate(0,0)"/>
<path d="" fill="#06A993" transform="translate(0,0)"/>
<path d="" fill="#05AC94" transform="translate(0,0)"/>
<path d="" fill="#05AC94" transform="translate(0,0)"/>
<path d="" fill="#06A993" transform="translate(0,0)"/>
<path d="" fill="#03A992" transform="translate(0,0)"/>
<path d="" fill="#06A993" transform="translate(0,0)"/>
<path d="" fill="#05AC94" transform="translate(0,0)"/>
<path d="" fill="#06A993" transform="translate(0,0)"/>
<path d="" fill="#06A993" transform="translate(0,0)"/>
<path d="" fill="#03A992" transform="translate(0,0)"/>
<path d="" fill="#06A993" transform="translate(0,0)"/>
<path d="" fill="#05AC94" transform="translate(0,0)"/>
<path d="" fill="#06A993" transform="translate(0,0)"/>
<path d="" fill="#05AC94" transform="translate(0,0)"/>
<path d="" fill="#05AC94" transform="translate(0,0)"/>
<path d="" fill="#06A993" transform="translate(0,0)"/>
<path d="" fill="#03A992" transform="translate(0,0)"/>
<path d="" fill="#06A993" transform="translate(0,0)"/>
<path d="" fill="#03A992" transform="translate(0,0)"/>
<path d="" fill="#03A992" transform="translate(0,0)"/>
<path d="" fill="#03A992" transform="translate(0,0)"/>
<path d="" fill="#03A992" transform="translate(0,0)"/>
<path d="" fill="#06A993" transform="translate(0,0)"/>
<path d="" fill="#06A993" transform="translate(0,0)"/>
<path d="" fill="#04A994" transform="translate(0,0)"/>
<path d="" fill="#05AB93" transform="translate(0,0)"/>
<path d="" fill="#06A993" transform="translate(0,0)"/>
<path d="" fill="#06A993" transform="translate(0,0)"/>
<path d="" fill="#03AC94" transform="translate(0,0)"/>
<path d="" fill="#06A993" transform="translate(0,0)"/>
<path d="" fill="#03A992" transform="translate(0,0)"/>
<path d="" fill="#03A992" transform="translate(0,0)"/>
<path d="" fill="#03A992" transform="translate(0,0)"/>
<path d="" fill="#05AC94" transform="translate(0,0)"/>
<path d="" fill="#03A992" transform="translate(0,0)"/>
<path d="" fill="#03AC94" transform="translate(0,0)"/>
<path d="" fill="#06A993" transform="translate(0,0)"/>
<path d="" fill="#05AC94" transform="translate(0,0)"/>
<path d="" fill="#05AC94" transform="translate(0,0)"/>
<path d="" fill="#06A993" transform="translate(0,0)"/>
<path d="" fill="#06A993" transform="translate(0,0)"/>
<path d="" fill="#05AB93" transform="translate(0,0)"/>
<path d="" fill="#03A992" transform="translate(0,0)"/>
<path d="" fill="#03A992" transform="translate(0,0)"/>
<path d="" fill="#06A993" transform="translate(0,0)"/>
<path d="" fill="#04AB93" transform="translate(0,0)"/>
<path d="" fill="#03A992" transform="translate(0,0)"/>
<path d="" fill="#05AC94" transform="translate(0,0)"/>
<path d="" fill="#03A992" transform="translate(0,0)"/>
<path d="" fill="#05AB93" transform="translate(0,0)"/>
<path d="" fill="#03A992" transform="translate(0,0)"/>
<path d="" fill="#06A993" transform="translate(0,0)"/>
<path d="" fill="#03A992" transform="translate(0,0)"/>
<path d="" fill="#03AC94" transform="translate(0,0)"/>
<path d="" fill="#05AC94" transform="translate(0,0)"/>
<path d="" fill="#03A992" transform="translate(0,0)"/>
<path d="" fill="#07AC95" transform="translate(0,0)"/>
<path d="" fill="#05AC94" transform="translate(0,0)"/>
<path d="" fill="#03A992" transform="translate(0,0)"/>
<path d="" fill="#05AB93" transform="translate(0,0)"/>
<path d="" fill="#03A992" transform="translate(0,0)"/>
<path d="" fill="#03A992" transform="translate(0,0)"/>
<path d="" fill="#06A993" transform="translate(0,0)"/>
<path d="" fill="#06A993" transform="translate(0,0)"/>
<path d="" fill="#06A993" transform="translate(0,0)"/>
<path d="" fill="#06A993" transform="translate(0,0)"/>
<path d="" fill="#03A992" transform="translate(0,0)"/>
<path d="" fill="#03A992" transform="translate(0,0)"/>
<path d="" fill="#05AC94" transform="translate(0,0)"/>
<path d="" fill="#06A993" transform="translate(0,0)"/>
<path d="" fill="#03A992" transform="translate(0,0)"/>
<path d="" fill="#06A993" transform="translate(0,0)"/>
<path d="" fill="#05AB93" transform="translate(0,0)"/>
<path d="" fill="#05AC94" transform="translate(0,0)"/>
<path d="" fill="#05AC94" transform="translate(0,0)"/>
<path d="" fill="#03AC94" transform="translate(0,0)"/>
<path d="" fill="#03A992" transform="translate(0,0)"/>
<path d="" fill="#03A992" transform="translate(0,0)"/>
<path d="" fill="#05AC94" transform="translate(0,0)"/>
<path d="" fill="#05AB93" transform="translate(0,0)"/>
<path d="" fill="#05AC94" transform="translate(0,0)"/>
<path d="" fill="#03A992" transform="translate(0,0)"/>
<path d="" fill="#05AC94" transform="translate(0,0)"/>
<path d="" fill="#05AC94" transform="translate(0,0)"/>
<path d="" fill="#06A993" transform="translate(0,0)"/>
<path d="" fill="#05AC94" transform="translate(0,0)"/>
<path d="" fill="#06A993" transform="translate(0,0)"/>
<path d="" fill="#06A993" transform="translate(0,0)"/>
<path d="" fill="#05AC94" transform="translate(0,0)"/>
<path d="" fill="#06A993" transform="translate(0,0)"/>
<path d="" fill="#06A993" transform="translate(0,0)"/>
<path d="" fill="#03A992" transform="translate(0,0)"/>
<path d="" fill="#05AC94" transform="translate(0,0)"/>
<path d="" fill="#03A992" transform="translate(0,0)"/>
<path d="" fill="#06A993" transform="translate(0,0)"/>
<path d="" fill="#03A992" transform="translate(0,0)"/>
<path d="" fill="#03A992" transform="translate(0,0)"/>
<path d="" fill="#05AC94" transform="translate(0,0)"/>
<path d="" fill="#05AB93" transform="translate(0,0)"/>
<path d="" fill="#06A993" transform="translate(0,0)"/>
<path d="" fill="#05AC94" transform="translate(0,0)"/>
<path d="" fill="#03A992" transform="translate(0,0)"/>
<path d="" fill="#03A992" transform="translate(0,0)"/>
<path d="" fill="#03A992" transform="translate(0,0)"/>
<path d="" fill="#03A992" transform="translate(0,0)"/>
<path d="" fill="#03A992" transform="translate(0,0)"/>
<path d="" fill="#06A993" transform="translate(0,0)"/>
<path d="" fill="#03A992" transform="translate(0,0)"/>
<path d="" fill="#05AB93" transform="translate(0,0)"/>
<path d="" fill="#03A992" transform="translate(0,0)"/>
<path d="" fill="#03A992" transform="translate(0,0)"/>
<path d="" fill="#03A992" transform="translate(0,0)"/>
<path d="" fill="#05AB93" transform="translate(0,0)"/>
<path d="" fill="#03A992" transform="translate(0,0)"/>
<path d="" fill="#03A992" transform="translate(0,0)"/>
<path d="" fill="#03A992" transform="translate(0,0)"/>
<path d="" fill="#03A992" transform="translate(0,0)"/>
<path d="" fill="#06A993" transform="translate(0,0)"/>
<path d="" fill="#06A993" transform="translate(0,0)"/>
<path d="" fill="#03A992" transform="translate(0,0)"/>
<path d="" fill="#03A992" transform="translate(0,0)"/>
<path d="" fill="#03A992" transform="translate(0,0)"/>
<path d="" fill="#05AB93" transform="translate(0,0)"/>
<path d="" fill="#05AC94" transform="translate(0,0)"/>
<path d="" fill="#03A992" transform="translate(0,0)"/>
<path d="" fill="#05AB93" transform="translate(0,0)"/>
<path d="" fill="#03A992" transform="translate(0,0)"/>
<path d="" fill="#06A993" transform="translate(0,0)"/>
<path d="" fill="#06A993" transform="translate(0,0)"/>
<path d="" fill="#03A992" transform="translate(0,0)"/>
<path d="" fill="#03A992" transform="translate(0,0)"/>
<path d="" fill="#03A992" transform="translate(0,0)"/>
<path d="" fill="#05AB93" transform="translate(0,0)"/>
<path d="" fill="#05AB93" transform="translate(0,0)"/>
<path d="" fill="#03A992" transform="translate(0,0)"/>
<path d="" fill="#06A993" transform="translate(0,0)"/>
<path d="" fill="#03A992" transform="translate(0,0)"/>
<path d="" fill="#05AB93" transform="translate(0,0)"/>
<path d="" fill="#03A992" transform="translate(0,0)"/>
<path d="" fill="#03A992" transform="translate(0,0)"/>
<path d="" fill="#05AB93" transform="translate(0,0)"/>
<path d="" fill="#06A993" transform="translate(0,0)"/>
<path d="" fill="#06A993" transform="translate(0,0)"/>
<path d="" fill="#06A993" transform="translate(0,0)"/>
<path d="" fill="#06A993" transform="translate(0,0)"/>
<path d="" fill="#05AB93" transform="translate(0,0)"/>
<path d="" fill="#05AB93" transform="translate(0,0)"/>
<path d="" fill="#05AB93" transform="translate(0,0)"/>
<path d="" fill="#06A993" transform="translate(0,0)"/>
<path d="" fill="#03A992" transform="translate(0,0)"/>
<path d="" fill="#06A993" transform="translate(0,0)"/>
<path d="" fill="#05AB93" transform="translate(0,0)"/>
<path d="" fill="#05AB93" transform="translate(0,0)"/>
<path d="" fill="#06A993" transform="translate(0,0)"/>
<path d="" fill="#05AB93" transform="translate(0,0)"/>
<path d="" fill="#06A993" transform="translate(0,0)"/>
<path d="" fill="#06A993" transform="translate(0,0)"/>
</svg>
